<svg xmlns="http://www.w3.org/2000/svg" xmlns:xlink="http://www.w3.org/1999/xlink" viewBox="0 0 1920 1010.19"><defs><style>.cls-1{isolation:isolate;}.cls-17,.cls-2{fill:#fff;}.cls-3{fill:#c8eefc;}.cls-4{fill:url(#linear-gradient);}.cls-5{fill:#4a00ce;}.cls-6{fill:url(#linear-gradient-2);}.cls-7{fill:url(#linear-gradient-3);}.cls-8{fill:url(#linear-gradient-4);}.cls-9{fill:url(#linear-gradient-5);}.cls-10{fill:url(#linear-gradient-6);}.cls-11{fill:url(#linear-gradient-7);}.cls-12{fill:url(#linear-gradient-8);}.cls-13{fill:url(#linear-gradient-9);}.cls-14{fill:url(#linear-gradient-10);}.cls-15{fill:url(#linear-gradient-11);}.cls-16{fill:url(#linear-gradient-12);}.cls-17{opacity:0.47;}.cls-18{fill:#e5e7e8;}.cls-19{fill:url(#linear-gradient-13);}.cls-20{fill:url(#linear-gradient-14);}.cls-21{fill:url(#linear-gradient-15);}.cls-22{fill:url(#linear-gradient-16);}.cls-23{fill:url(#linear-gradient-17);}.cls-24{fill:url(#linear-gradient-18);}.cls-25{fill:url(#linear-gradient-19);}.cls-26{fill:url(#linear-gradient-20);}.cls-27{fill:url(#linear-gradient-21);}.cls-28{fill:url(#linear-gradient-22);}.cls-29{fill:url(#linear-gradient-23);}.cls-30{fill:url(#linear-gradient-24);}.cls-31{fill:url(#linear-gradient-25);}.cls-32{fill:#bcecff;}.cls-33{fill:#00a6be;}.cls-34{fill:#132c83;}.cls-35{fill:#ffd76a;}.cls-36{fill:#f9ffff;}.cls-37{fill:#007cb5;}.cls-38{fill:#bbd7d7;}.cls-38,.cls-44,.cls-51,.cls-53,.cls-59,.cls-60{mix-blend-mode:multiply;}.cls-39{fill:#ffcd40;}.cls-40{fill:#f0f0f1;}.cls-41,.cls-44{fill:#8cd0e3;}.cls-42{fill:#0047ac;}.cls-43{fill:url(#linear-gradient-26);}.cls-45{fill:#ff7451;}.cls-46{fill:#001b61;}.cls-47{fill:url(#linear-gradient-27);}.cls-48{fill:#3f6ee6;}.cls-49{fill:url(#linear-gradient-28);}.cls-50,.cls-53{fill:#0093ff;}.cls-51{fill:#d0d3d4;}.cls-52{fill:#ffcc40;}.cls-54{fill:#ffe082;}.cls-55{fill:#84beff;}.cls-56{fill:#ff3f38;}.cls-57{fill:url(#linear-gradient-29);}.cls-58{fill:url(#linear-gradient-30);}.cls-59{fill:#003c5f;}.cls-60{fill:#e88070;}.cls-61{fill:url(#linear-gradient-31);}.cls-62{fill:url(#linear-gradient-32);}.cls-63{fill:#a9e4ff;opacity:0.53;}</style><linearGradient id="linear-gradient" x1="822.15" y1="-121.71" x2="817.74" y2="715.82" gradientUnits="userSpaceOnUse"><stop offset="0.28" stop-color="#585afc"/><stop offset="0.48" stop-color="#6063fc"/><stop offset="0.82" stop-color="#757dfd"/><stop offset="0.99" stop-color="#838dfd"/></linearGradient><linearGradient id="linear-gradient-2" x1="493.97" y1="100.21" x2="640.73" y2="227.98" gradientUnits="userSpaceOnUse"><stop offset="0" stop-color="#00abe3"/><stop offset="1" stop-color="#ffcd40"/></linearGradient><linearGradient id="linear-gradient-3" x1="506.33" y1="76.4" x2="644.97" y2="197.1" xlink:href="#linear-gradient-2"/><linearGradient id="linear-gradient-4" x1="510.95" y1="71.09" x2="649.59" y2="191.79" xlink:href="#linear-gradient-2"/><linearGradient id="linear-gradient-5" x1="501.71" y1="81.71" x2="640.35" y2="202.41" xlink:href="#linear-gradient-2"/><linearGradient id="linear-gradient-6" x1="482.4" y1="103.9" x2="621.04" y2="224.6" xlink:href="#linear-gradient-2"/><linearGradient id="linear-gradient-7" x1="487.02" y1="98.59" x2="625.66" y2="219.29" xlink:href="#linear-gradient-2"/><linearGradient id="linear-gradient-8" x1="477.78" y1="109.21" x2="616.42" y2="229.91" xlink:href="#linear-gradient-2"/><linearGradient id="linear-gradient-9" x1="464.41" y1="124.57" x2="603.05" y2="245.27" xlink:href="#linear-gradient-2"/><linearGradient id="linear-gradient-10" x1="481.88" y1="104.48" x2="620.53" y2="225.19" xlink:href="#linear-gradient-2"/><linearGradient id="linear-gradient-11" x1="477.26" y1="109.79" x2="615.91" y2="230.5" xlink:href="#linear-gradient-2"/><linearGradient id="linear-gradient-12" x1="472.63" y1="115.1" x2="611.29" y2="235.81" xlink:href="#linear-gradient-2"/><linearGradient id="linear-gradient-13" x1="972.65" y1="270.6" x2="916.57" y2="316.71" xlink:href="#linear-gradient-2"/><linearGradient id="linear-gradient-14" x1="735.85" y1="300.55" x2="669.97" y2="220.43" xlink:href="#linear-gradient-2"/><linearGradient id="linear-gradient-15" x1="823.92" y1="101.8" x2="831.3" y2="258.48" xlink:href="#linear-gradient-2"/><linearGradient id="linear-gradient-16" x1="780.08" y1="414.1" x2="787.85" y2="414.1" xlink:href="#linear-gradient-2"/><linearGradient id="linear-gradient-17" x1="773.5" y1="440.93" x2="829.12" y2="440.93" xlink:href="#linear-gradient-2"/><linearGradient id="linear-gradient-18" x1="799.97" y1="413.98" x2="825.61" y2="413.98" xlink:href="#linear-gradient-2"/><linearGradient id="linear-gradient-19" x1="780.76" y1="445.04" x2="820.9" y2="445.04" xlink:href="#linear-gradient-2"/><linearGradient id="linear-gradient-20" x1="781.16" y1="424.28" x2="822.16" y2="424.28" xlink:href="#linear-gradient-2"/><linearGradient id="linear-gradient-21" x1="770.9" y1="414.52" x2="842.13" y2="414.52" xlink:href="#linear-gradient-2"/><linearGradient id="linear-gradient-22" x1="760.49" y1="440.03" x2="780.51" y2="440.03" xlink:href="#linear-gradient-2"/><linearGradient id="linear-gradient-23" x1="784.82" y1="460.31" x2="839.35" y2="460.31" xlink:href="#linear-gradient-2"/><linearGradient id="linear-gradient-24" x1="751.06" y1="433.82" x2="851.56" y2="433.82" xlink:href="#linear-gradient-2"/><linearGradient id="linear-gradient-25" x1="796.62" y1="433.82" x2="806" y2="433.82" xlink:href="#linear-gradient-2"/><linearGradient id="linear-gradient-26" x1="1576.95" y1="810.7" x2="1865.15" y2="810.7" gradientUnits="userSpaceOnUse"><stop offset="0.28" stop-color="#329cff"/><stop offset="0.51" stop-color="#3ba3ff"/><stop offset="0.89" stop-color="#55b7ff"/><stop offset="0.99" stop-color="#5dbdff"/></linearGradient><linearGradient id="linear-gradient-27" x1="1651.34" y1="908.85" x2="1701.32" y2="908.85" xlink:href="#linear-gradient-26"/><linearGradient id="linear-gradient-28" x1="1242.76" y1="878.97" x2="1315.48" y2="878.97" xlink:href="#linear-gradient-26"/><linearGradient id="linear-gradient-29" x1="918.37" y1="799.46" x2="956.41" y2="799.46" xlink:href="#linear-gradient-26"/><linearGradient id="linear-gradient-30" x1="962.81" y1="799.46" x2="1033.07" y2="799.46" xlink:href="#linear-gradient-26"/><linearGradient id="linear-gradient-31" x1="221.81" y1="52.29" x2="221.81" y2="539.45" gradientUnits="userSpaceOnUse"><stop offset="0" stop-color="#fff"/><stop offset="0.18" stop-color="#f8fcff"/><stop offset="0.44" stop-color="#e4f5ff"/><stop offset="0.76" stop-color="#c4e9ff"/><stop offset="1" stop-color="#a6deff"/></linearGradient><linearGradient id="linear-gradient-32" x1="228.88" y1="695.03" x2="380.51" y2="695.03" xlink:href="#linear-gradient-26"/></defs><title>EHR-Main-Slider</title><g class="cls-1"><g id="Layer_2" data-name="Layer 2"><g id="Layer_1-2" data-name="Layer 1"><rect id="FLOOR" class="cls-2" y="883.92" width="1920" height="126.27"/><g id="SHADOW_ON_THE_FLOOR" data-name="SHADOW ON THE FLOOR"><polygon class="cls-3" points="1584.17 883.92 1594.77 890.03 1920 890.03 1920 883.92 1584.17 883.92"/><polygon class="cls-3" points="1614.54 901.92 1625.85 908.45 1920 908.45 1920 901.92 1614.54 901.92"/><polygon class="cls-3" points="1645.62 919.87 1656.92 926.39 1920 926.39 1920 919.87 1645.62 919.87"/><polygon class="cls-3" points="1676.69 937.82 1688 944.34 1920 944.34 1920 937.82 1676.69 937.82"/><polygon class="cls-3" points="1707.06 955.36 1718.36 961.88 1920 961.88 1920 955.36 1707.06 955.36"/><polygon class="cls-3" points="1738.14 973.3 1749.44 979.83 1920 979.83 1920 973.3 1738.14 973.3"/><polygon class="cls-3" points="1769.21 991.25 1780.52 997.78 1920 997.78 1920 991.25 1769.21 991.25"/></g><g id="BOARD"><path class="cls-4" d="M1182.45,57.75V456.6a56.25,56.25,0,0,1-56.23,56.28H514.09a56.26,56.26,0,0,1-56.24-56.28V57.75c0-.41,0-.83,0-1.24s0-.81,0-1.22,0-.72.06-1.07,0-.91.09-1.37h724.18C1182.38,54.47,1182.45,56.1,1182.45,57.75Z"/><path class="cls-5" d="M1182.45,0V52.85H458.06c0,.46-.07.91-.09,1.37s-.05.71-.06,1.07,0,.81,0,1.22,0,.83,0,1.24V456.6a56.26,56.26,0,0,0,56.24,56.28h-9.78a56.25,56.25,0,0,1-56.23-56.28V57.75c0-1.65.07-3.28.2-4.9h-.2V0Z"/><path class="cls-6" d="M496.28,97.57V230.63H638.43V97.57Zm40.53,2.85h98.76v18.85H536.81Zm0,21.71h98.76v45.11H536.81ZM534,227.77H499.13V170.09H534Zm0-60.53H499.13V122.13H534Zm0-48H499.13V100.42H534Zm101.61,108.5H536.81V170.09h98.76Z"/><rect class="cls-7" x="550.84" y="142.56" width="67.89" height="4.28"/><rect class="cls-8" x="550.84" y="133.23" width="67.89" height="4.28"/><rect class="cls-9" x="550.84" y="151.89" width="67.89" height="4.28"/><rect class="cls-10" x="550.84" y="190.89" width="67.89" height="4.28"/><rect class="cls-11" x="550.84" y="181.56" width="67.89" height="4.28"/><rect class="cls-12" x="550.84" y="200.22" width="67.89" height="4.28"/><rect class="cls-13" x="550.84" y="209.48" width="27.11" height="4.28"/><rect class="cls-14" x="513.19" y="133.23" width="8.33" height="4.28"/><rect class="cls-15" x="513.19" y="142.56" width="8.33" height="4.28"/><rect class="cls-16" x="513.19" y="151.89" width="8.33" height="4.28"/><path class="cls-17" d="M1140.15,331.6V447.69c0,9.05-5,16.38-11.15,16.38H1007.66c-6.15,0-11.15-7.33-11.15-16.38V331.6c0-9.05,5-16.38,11.15-16.38H1129C1135.16,315.22,1140.15,322.55,1140.15,331.6Z"/><path class="cls-18" d="M1113.71,408.24H1023a4.29,4.29,0,0,1,0-8.57h90.75a4.29,4.29,0,0,1,0,8.57Z"/><path class="cls-18" d="M1113.71,388.82H1023a4.28,4.28,0,0,1,0-8.56h90.75a4.28,4.28,0,0,1,0,8.56Z"/><path class="cls-18" d="M1113.71,427.66H1023a4.29,4.29,0,0,1,0-8.57h90.75a4.29,4.29,0,0,1,0,8.57Z"/><rect class="cls-18" x="1040.6" y="339.4" width="55.46" height="16.32"/><rect class="cls-17" x="996.51" y="97.57" width="185.94" height="84.03"/><rect class="cls-18" x="1020.29" y="124.57" width="135.38" height="26.11"/><g id="MOLECULES"><path class="cls-19" d="M980.7,309.36a4.91,4.91,0,0,0-2.63.76l-10-6.61a6.66,6.66,0,0,0,.31-2,6.57,6.57,0,0,0-.45-2.4l9.17-6.6a4.95,4.95,0,1,0-1.31-3.36,1.62,1.62,0,0,0,0,.22L966,296.42a6.47,6.47,0,0,0-2.35-1.27v-21h-.19a6.62,6.62,0,1,0-8.3-6.4,7.15,7.15,0,0,0,.14,1.4l-7.88,6.54a12.72,12.72,0,0,0-6.68-3V256.51a6.63,6.63,0,1,0-3.31,0V272.7a12.77,12.77,0,0,0-8.56,5l-7.94-5.23a6.62,6.62,0,1,0-1.41,3l7.71,5.08A12.85,12.85,0,0,0,928,291.8l-8.77,7.28a6.64,6.64,0,1,0,1.81,4.55,6.92,6.92,0,0,0-.19-1.59l9.17-7.61a12.78,12.78,0,0,0,7.41,3.65v15a7.74,7.74,0,1,0,3.31,0v-15a12.72,12.72,0,0,0,7.45-3.7l7.37,4.85a6.61,6.61,0,0,0,10.75,7.08l9.75,6.42a4.83,4.83,0,0,0-.26,1.57,4.94,4.94,0,1,0,4.94-4.94ZM960.3,295a6.63,6.63,0,0,0-2.91,1.46l-7.23-4.76a12.8,12.8,0,0,0-.57-13.59l7.22-6a6.57,6.57,0,0,0,3.49,2Z"/><path class="cls-20" d="M765.66,242.85a9.45,9.45,0,0,0-9.33,7.93H732.42a18.23,18.23,0,0,0-7.24-12.32l7.59-11.52a9.45,9.45,0,1,0-4.34-2L721,236.15a18,18,0,0,0-6.74-1.29,18.27,18.27,0,0,0-9,2.36L694.75,224.5a9.45,9.45,0,1,0-14.24-1.44L664,241.63c-.3,0-.62,0-.94,0a11,11,0,1,0,10.65,13.92h22.48a18.23,18.23,0,0,0,5.19,10.55l-6.82,10.35a9.46,9.46,0,0,0-10.12,15.38l-9.16,13.92a7,7,0,0,0-2.24-.37,7,7,0,1,0,6,3.3h0l9.43-14.33a9.54,9.54,0,0,0,6.3-.2l9.43,13.11a7.05,7.05,0,1,0,4.79-1.88h-.31l-10.07-14a9.5,9.5,0,0,0,1.8-3.38h30v-.1a9.45,9.45,0,1,0,9.1-12,9.36,9.36,0,0,0-2,.21l-9.23-11.13a18.2,18.2,0,0,0,4.14-9.41h24.34a9.46,9.46,0,1,0,8.9-12.66Zm-69.49,7.93H673.92a11,11,0,0,0-5-7.53l15.23-17.12a9.34,9.34,0,0,0,4.15,1,9,9,0,0,0,2.28-.28l11,13.26A18.25,18.25,0,0,0,696.17,250.78Zm37,27.47a9.4,9.4,0,0,0-2.92,5H700.52a9.29,9.29,0,0,0-2.09-4.15L705.11,269a18.27,18.27,0,0,0,19.68-.83Z"/><path class="cls-21" d="M896,149q-.65,0-1.29.06L872,123.51a13,13,0,1,0-19.58,2L837.87,143a25.19,25.19,0,0,0-21.65-1.48l-10.16-15.45a12.94,12.94,0,1,0-5.95,2.78l10.42,15.84a25.13,25.13,0,0,0-9.95,16.95h-32.2a13,13,0,1,0-.6,6.5h32.8a25,25,0,0,0,5.7,12.94l-12.7,15.3a13.69,13.69,0,0,0-2.74-.29,13,13,0,1,0,12.56,16.35v.34h41.26a13,13,0,0,0,2.48,4.64l-13.85,19.25h-.42a9.71,9.71,0,1,0,6.58,2.58l13-18a12.93,12.93,0,0,0,4.71.88,13.21,13.21,0,0,0,4-.61l13,19.7a9.77,9.77,0,1,0,5.13-4L866.58,218a13,13,0,0,0-13.91-21.14l-9.38-14.24a25,25,0,0,0,7.13-14.5h30.91A15.17,15.17,0,1,0,896,149Zm-48.66,51.57a13,13,0,0,0-2.87,5.71H803.53a13,13,0,0,0-4-6.87l11.57-13.94a25.09,25.09,0,0,0,27,1.15ZM881,161.63h-30.6a25.07,25.07,0,0,0-7.36-14.73l15.13-18.23a12.88,12.88,0,0,0,3.12.38,13,13,0,0,0,5.71-1.31L888,151.28A15.16,15.16,0,0,0,881,161.63Z"/></g><path class="cls-22" d="M781.42,417.69a1.3,1.3,0,0,1-.88-.34,1.35,1.35,0,0,1-.13-1.9,28.13,28.13,0,0,1,5.34-4.7,1.35,1.35,0,0,1,1.51,2.23,25.68,25.68,0,0,0-4.82,4.25A1.37,1.37,0,0,1,781.42,417.69Z"/><path class="cls-23" d="M801.31,461.63A27.83,27.83,0,0,1,776.64,421a1.34,1.34,0,1,1,2.38,1.25,25.13,25.13,0,1,0,47.41,11.6,1.35,1.35,0,1,1,2.69,0A27.85,27.85,0,0,1,801.31,461.63Z"/><path class="cls-24" d="M824.26,422a1.34,1.34,0,0,1-1.16-.67,25.23,25.23,0,0,0-21.79-12.62,1.35,1.35,0,0,1,0-2.69,27.92,27.92,0,0,1,24.12,14,1.35,1.35,0,0,1-1.17,2Z"/><path class="cls-25" d="M801.31,454.67a20.82,20.82,0,0,1-20.52-17.15,1.79,1.79,0,1,1,3.53-.64A17.27,17.27,0,0,0,817.43,440a1.79,1.79,0,0,1,3.35,1.29A21,21,0,0,1,801.31,454.67Z"/><path class="cls-26" d="M820.36,435.61a1.8,1.8,0,0,1-1.79-1.8,17.26,17.26,0,0,0-33.88-4.66,1.8,1.8,0,0,1-3.46-1,20.85,20.85,0,0,1,40.93,5.63A1.81,1.81,0,0,1,820.36,435.61Z"/><path class="cls-27" d="M839.88,436.05a2.24,2.24,0,0,1-2.24-2.24,36.38,36.38,0,0,0-36.33-36.34A36,36,0,0,0,774.78,409a2.24,2.24,0,1,1-3.27-3.07,40.82,40.82,0,0,1,70.62,27.9A2.24,2.24,0,0,1,839.88,436.05Z"/><path class="cls-28" d="M778.27,467a2.23,2.23,0,0,1-1.34-.45,40.5,40.5,0,0,1-16.44-32.75,40.91,40.91,0,0,1,5-19.6,2.25,2.25,0,0,1,3.94,2.16A36.37,36.37,0,0,0,779.61,463a2.25,2.25,0,0,1-1.34,4.05Z"/><path class="cls-29" d="M801.31,474.64a40.59,40.59,0,0,1-15.08-2.88,2.24,2.24,0,0,1,1.66-4.16A36.39,36.39,0,0,0,835,447.38a2.24,2.24,0,0,1,4.16,1.68A40.64,40.64,0,0,1,801.31,474.64Z"/><path class="cls-30" d="M801.31,484.08h-1.12a1.35,1.35,0,0,1-1.11-.64,1.37,1.37,0,0,1-1.17.54c-.76-.05-1.53-.12-2.28-.21a1.32,1.32,0,0,1-1-.73,1.39,1.39,0,0,1-1.22.43c-.74-.12-1.5-.26-2.25-.42a1.32,1.32,0,0,1-1-.83,1.34,1.34,0,0,1-1.25.32c-.73-.19-1.47-.39-2.2-.61a1.35,1.35,0,0,1-.9-.93,1.33,1.33,0,0,1-1.28.21c-.72-.26-1.44-.53-2.14-.82a1.34,1.34,0,0,1-.82-1,1.32,1.32,0,0,1-1.28.09c-.69-.32-1.39-.66-2.06-1a1.4,1.4,0,0,0-2-1.1c-.66-.38-1.32-.78-2-1.19a1.37,1.37,0,0,1-.62-1.13,1.35,1.35,0,0,1-1.27-.15c-.62-.44-1.24-.9-1.84-1.37a1.41,1.41,0,0,0-1.78-1.44c-.58-.49-1.15-1-1.7-1.52a1.4,1.4,0,0,0-1.64-1.6c-.53-.55-1.06-1.11-1.56-1.67a1.37,1.37,0,0,1-.3-1.26,1.33,1.33,0,0,1-1.18-.48c-.49-.59-1-1.2-1.41-1.81a1.41,1.41,0,0,0-1.32-1.87c-.42-.62-.84-1.27-1.23-1.92a1.42,1.42,0,0,0-1.15-2c-.36-.66-.72-1.35-1.05-2a1.35,1.35,0,0,1,.05-1.28,1.36,1.36,0,0,1-1-.8c-.3-.69-.59-1.4-.86-2.11a1.4,1.4,0,0,0-.77-2.15c-.24-.72-.46-1.46-.67-2.19a1.4,1.4,0,0,0-.57-2.22c-.17-.74-.32-1.49-.46-2.24a1.32,1.32,0,0,1,.4-1.22,1.34,1.34,0,0,1-.76-1c-.11-.75-.19-1.51-.26-2.27a1.32,1.32,0,0,1,.51-1.18,1.36,1.36,0,0,1-.67-1.1c0-.76-.05-1.53-.05-2.29a1.41,1.41,0,0,0,.05-2.29c0-.76.08-1.53.15-2.28a1.34,1.34,0,0,1,.71-1.07,1.36,1.36,0,0,1-.46-1.2c.1-.75.22-1.52.36-2.26a1.36,1.36,0,0,1,.81-1,1.33,1.33,0,0,1-.35-1.23c.17-.75.36-1.49.56-2.22a1.38,1.38,0,0,1,.9-.93,1.32,1.32,0,0,1-.23-1.26c.24-.72.49-1.45.76-2.17a1.34,1.34,0,0,1,1-.83,1.37,1.37,0,0,1-.11-1.29c.3-.7.62-1.4,1-2.08a1.41,1.41,0,0,0,1.05-2c.37-.66.75-1.33,1.15-2a1.34,1.34,0,0,1,1.11-.65,1.36,1.36,0,0,1,.12-1.28c.43-.63.87-1.26,1.32-1.87a1.41,1.41,0,0,0,1.41-1.81c.48-.59,1-1.17,1.48-1.74a1.37,1.37,0,0,1,1.21-.44,1.32,1.32,0,0,1,.35-1.23c.53-.55,1.08-1.09,1.63-1.6a1.41,1.41,0,0,0,1.71-1.53c.57-.49,1.17-1,1.77-1.44a1.33,1.33,0,0,1,1.27-.21,1.37,1.37,0,0,1,.56-1.16c.62-.44,1.26-.87,1.9-1.28a1.4,1.4,0,0,0,1.95-1.19c.65-.38,1.32-.75,2-1.1a1.41,1.41,0,0,0,2.05-1c.69-.32,1.39-.62,2.09-.91a1.41,1.41,0,0,0,2.14-.82c.71-.25,1.44-.5,2.17-.72a1.4,1.4,0,0,0,2.2-.62c.73-.19,1.48-.36,2.23-.51a1.32,1.32,0,0,1,1.23.37,1.35,1.35,0,0,1,1-.79c.74-.12,1.51-.22,2.26-.31a1.41,1.41,0,0,0,2.28-.21c.76-.05,1.53-.09,2.28-.11a1.38,1.38,0,0,1,1.15.59,1.32,1.32,0,0,1,1.14-.59c.76,0,1.53.05,2.29.1a1.32,1.32,0,0,1,1.08.69,1.36,1.36,0,0,1,1.19-.49c.76.09,1.52.19,2.27.31a1.41,1.41,0,0,0,2.25.41c.75.15,1.5.32,2.23.51a1.31,1.31,0,0,1,.94.87,1.35,1.35,0,0,1,1.26-.26c.73.22,1.46.46,2.18.72a1.35,1.35,0,0,1,.87,1,1.32,1.32,0,0,1,1.28-.15c.7.29,1.41.59,2.1.91a1.4,1.4,0,0,0,2.06,1c.67.35,1.35.72,2,1.1a1.41,1.41,0,0,0,2,1.19c.63.41,1.27.84,1.9,1.27a1.4,1.4,0,0,1,.57,1.16,1.34,1.34,0,0,1,1.27.21c.6.46,1.19.95,1.77,1.44a1.34,1.34,0,0,1,.46,1.2,1.35,1.35,0,0,1,1.25.32c.55.52,1.1,1.06,1.64,1.6a1.37,1.37,0,0,1,.35,1.24,1.34,1.34,0,0,1,1.21.43c.5.56,1,1.15,1.49,1.74a1.39,1.39,0,0,0,1.4,1.8c.45.61.9,1.24,1.32,1.87a1.34,1.34,0,0,1,.13,1.28,1.32,1.32,0,0,1,1.11.64c.39.65.78,1.31,1.14,2a1.41,1.41,0,0,0,1.06,2c.34.68.66,1.38,1,2.07a1.4,1.4,0,0,0,.87,2.11c.27.71.53,1.44.77,2.16a1.37,1.37,0,0,1-.23,1.27,1.34,1.34,0,0,1,.9.92c.2.73.39,1.47.57,2.21a1.4,1.4,0,0,0,.46,2.24c.14.75.26,1.51.37,2.26a1.36,1.36,0,0,1-.46,1.21,1.32,1.32,0,0,1,.72,1.07c.07.75.12,1.52.16,2.28a1.41,1.41,0,0,0,0,2.29v.09c0,.76,0,1.53,0,2.29a1.35,1.35,0,0,1-.66,1.1,1.37,1.37,0,0,1,.51,1.18c-.07.75-.16,1.52-.26,2.27a1.41,1.41,0,0,0-.36,2.26c-.14.75-.29,1.5-.46,2.24a1.37,1.37,0,0,1-.85,1,1.33,1.33,0,0,1,.28,1.25c-.2.73-.43,1.47-.66,2.19a1.35,1.35,0,0,1-.95.88,1.33,1.33,0,0,1,.18,1.28c-.27.71-.56,1.43-.87,2.12a1.34,1.34,0,0,1-1,.8,1.37,1.37,0,0,1,.05,1.29c-.33.68-.69,1.36-1.05,2a1.4,1.4,0,0,0-1.15,2c-.4.65-.81,1.3-1.24,1.93a1.32,1.32,0,0,1-1.14.59,1.37,1.37,0,0,1-.18,1.28c-.45.61-.93,1.22-1.4,1.81a1.36,1.36,0,0,1-1.2.48,1.34,1.34,0,0,1-.29,1.26c-.51.56-1,1.13-1.56,1.67a1.36,1.36,0,0,1-1.23.38,1.34,1.34,0,0,1-.41,1.22c-.55.52-1.13,1-1.7,1.52a1.36,1.36,0,0,1-1.26.27,1.31,1.31,0,0,1-.52,1.17c-.59.47-1.21.93-1.83,1.37A1.37,1.37,0,0,1,829,475a1.32,1.32,0,0,1-.62,1.12c-.64.41-1.29.81-1.95,1.19a1.41,1.41,0,0,0-2,1.1c-.67.35-1.36.69-2.05,1a1.4,1.4,0,0,0-2.09.91c-.7.28-1.42.56-2.14.81a1.4,1.4,0,0,0-2.17.72c-.73.22-1.47.43-2.2.62a1.34,1.34,0,0,1-1.25-.32,1.37,1.37,0,0,1-1,.84c-.75.15-1.5.29-2.25.41a1.41,1.41,0,0,0-2.27.31c-.75.08-1.52.15-2.28.2a1.36,1.36,0,0,1-1.17-.53,1.35,1.35,0,0,1-1.11.64Zm-5.53-3h.15c.71.08,1.44.14,2.16.19a1.33,1.33,0,0,1,1,.64,1.31,1.31,0,0,1,1.11-.54h2.17a1.31,1.31,0,0,1,1.11.54,1.33,1.33,0,0,1,1.05-.64c.72,0,1.44-.12,2.16-.2a1.28,1.28,0,0,0,2.14-.29c.71-.11,1.43-.25,2.13-.39a1.29,1.29,0,0,0,2.11-.49c.7-.18,1.4-.37,2.08-.58a1.35,1.35,0,0,1,1.22.22,1.3,1.3,0,0,1,.84-.9c.68-.24,1.36-.5,2-.77a1.34,1.34,0,0,1,1.22.1,1.35,1.35,0,0,1,.76-1c.65-.3,1.3-.62,1.94-.95a1.28,1.28,0,0,0,1.89-1c.63-.36,1.25-.74,1.85-1.12a1.32,1.32,0,0,1,1.23-.12,1.35,1.35,0,0,1,.56-1.09c.59-.42,1.18-.85,1.74-1.29a1.34,1.34,0,0,1,1.21-.23,1.37,1.37,0,0,1,.47-1.14c.55-.46,1.09-.95,1.62-1.44a1.33,1.33,0,0,1,1.18-.34,1.35,1.35,0,0,1,.36-1.17c.51-.52,1-1.05,1.48-1.59a1.38,1.38,0,0,1,1.15-.44,1.33,1.33,0,0,1,.26-1.2c.45-.56.9-1.14,1.33-1.71a1.29,1.29,0,0,0,1.25-1.77c.4-.6.8-1.22,1.17-1.83a1.3,1.3,0,0,0,1.09-1.88c.34-.63.68-1.28,1-1.92a1.32,1.32,0,0,1,1-.74,1.3,1.3,0,0,1-.08-1.23c.28-.66.56-1.33.82-2a1.33,1.33,0,0,1,.92-.82,1.35,1.35,0,0,1-.2-1.22c.23-.68.44-1.38.63-2.07a1.35,1.35,0,0,1,.84-.91,1.3,1.3,0,0,1-.3-1.19c.16-.7.3-1.41.43-2.12a1.37,1.37,0,0,1,.76-1,1.3,1.3,0,0,1-.41-1.16c.09-.71.17-1.44.24-2.15a1.29,1.29,0,0,0,.14-2.16c0-.72,0-1.45,0-2.17v-.09a1.3,1.3,0,0,0,0-2.17q0-1.08-.15-2.16a1.33,1.33,0,0,1,.46-1.14,1.35,1.35,0,0,1-.71-1c-.1-.71-.21-1.43-.34-2.14a1.36,1.36,0,0,1,.35-1.18,1.35,1.35,0,0,1-.79-.94c-.17-.7-.35-1.4-.54-2.09a1.33,1.33,0,0,1,.24-1.21,1.35,1.35,0,0,1-.88-.86c-.22-.69-.47-1.37-.73-2a1.28,1.28,0,0,0-.81-2c-.29-.66-.6-1.32-.92-2a1.36,1.36,0,0,1,0-1.23,1.32,1.32,0,0,1-1-.69c-.35-.63-.71-1.26-1.09-1.87a1.29,1.29,0,0,0-1.17-1.82c-.4-.59-.82-1.18-1.25-1.76a1.29,1.29,0,0,0-1.33-1.71c-.45-.56-.93-1.11-1.41-1.65a1.34,1.34,0,0,1-.31-1.19,1.32,1.32,0,0,1-1.17-.39c-.5-.51-1-1-1.55-1.51a1.32,1.32,0,0,1-.41-1.16,1.35,1.35,0,0,1-1.2-.28c-.55-.47-1.12-.93-1.68-1.37a1.29,1.29,0,0,0-1.75-1.29c-.58-.41-1.19-.82-1.79-1.2a1.33,1.33,0,0,1-.62-1.07,1.36,1.36,0,0,1-1.24-.06c-.62-.36-1.26-.71-1.9-1a1.28,1.28,0,0,0-1.95-.95c-.65-.3-1.32-.59-2-.87a1.35,1.35,0,0,1-.8-.94,1.32,1.32,0,0,1-1.22.17c-.68-.24-1.38-.47-2.07-.67a1.33,1.33,0,0,1-.88-.86,1.35,1.35,0,0,1-1.2.28c-.7-.18-1.41-.34-2.11-.49a1.35,1.35,0,0,1-1-.77,1.34,1.34,0,0,1-1.17.39c-.71-.12-1.43-.21-2.15-.29a1.35,1.35,0,0,1-1-.68,1.39,1.39,0,0,1-1.13.49c-.72,0-1.44-.08-2.17-.1a1.28,1.28,0,0,0-2.16,0c-.72,0-1.45.05-2.16.1a1.37,1.37,0,0,1-1.14-.49,1.31,1.31,0,0,1-1,.68c-.72.09-1.44.18-2.14.3a1.39,1.39,0,0,1-1.18-.38,1.33,1.33,0,0,1-.95.77c-.71.15-1.42.31-2.11.49a1.34,1.34,0,0,1-1.2-.27,1.39,1.39,0,0,1-.89.86c-.68.21-1.37.44-2,.68a1.28,1.28,0,0,0-2,.77c-.66.27-1.33.56-2,.87a1.36,1.36,0,0,1-1.23-.05,1.35,1.35,0,0,1-.71,1c-.64.33-1.28.68-1.89,1a1.31,1.31,0,0,1-1.23.06,1.36,1.36,0,0,1-.62,1.07c-.6.39-1.2.79-1.79,1.21a1.29,1.29,0,0,0-1.74,1.29c-.57.44-1.13.9-1.67,1.37a1.29,1.29,0,0,0-1.62,1.44c-.52.49-1,1-1.54,1.52a1.38,1.38,0,0,1-1.17.39,1.35,1.35,0,0,1-.31,1.19q-.72.81-1.41,1.65a1.33,1.33,0,0,1-1.13.49,1.34,1.34,0,0,1-.2,1.22c-.42.58-.84,1.17-1.24,1.77a1.36,1.36,0,0,1-1.09.6,1.35,1.35,0,0,1-.08,1.23c-.38.61-.74,1.24-1.09,1.88a1.34,1.34,0,0,1-1,.69,1.36,1.36,0,0,1,0,1.23c-.32.65-.63,1.31-.91,2a1.32,1.32,0,0,1-1,.78,1.37,1.37,0,0,1,.14,1.23c-.26.68-.5,1.37-.72,2.05a1.35,1.35,0,0,1-.88.86,1.36,1.36,0,0,1,.25,1.21c-.2.69-.37,1.4-.54,2.1a1.32,1.32,0,0,1-.79.94,1.35,1.35,0,0,1,.36,1.18c-.13.71-.24,1.43-.34,2.14a1.28,1.28,0,0,0-.24,2.15c-.06.71-.11,1.44-.14,2.16a1.34,1.34,0,0,1-.62,1.07,1.32,1.32,0,0,1,.57,1.1c0,.72,0,1.45,0,2.16a1.34,1.34,0,0,1-.51,1.12,1.36,1.36,0,0,1,.66,1c.06.72.15,1.44.24,2.16a1.28,1.28,0,0,0,.34,2.13c.14.71.28,1.43.45,2.12a1.36,1.36,0,0,1-.31,1.2,1.33,1.33,0,0,1,.84.9c.2.69.41,1.39.63,2.07a1.29,1.29,0,0,0,.73,2c.26.67.53,1.34.82,2a1.28,1.28,0,0,0,.91,2c.31.64.65,1.29,1,1.92a1.29,1.29,0,0,0,1.09,1.87c.37.61.76,1.22,1.16,1.82a1.34,1.34,0,0,1,.15,1.22,1.37,1.37,0,0,1,1.1.55c.43.57.88,1.15,1.33,1.7a1.35,1.35,0,0,1,.26,1.21,1.38,1.38,0,0,1,1.15.44c.47.54,1,1.07,1.47,1.58a1.36,1.36,0,0,1,.37,1.18,1.34,1.34,0,0,1,1.18.34q.79.74,1.62,1.44a1.37,1.37,0,0,1,.47,1.14,1.34,1.34,0,0,1,1.21.23q.86.66,1.74,1.29a1.33,1.33,0,0,1,.57,1.1,1.35,1.35,0,0,1,1.23.11c.6.39,1.22.77,1.85,1.13a1.33,1.33,0,0,1,.66,1,1.36,1.36,0,0,1,1.24,0q1,.49,1.95,1a1.3,1.3,0,0,1,.75,1,1.35,1.35,0,0,1,1.24-.11c.66.27,1.34.53,2,.77a1.35,1.35,0,0,1,.85.91,1.33,1.33,0,0,1,1.21-.23c.69.21,1.39.41,2.09.58a1.29,1.29,0,0,0,2.11.49c.7.14,1.42.27,2.13.39a1.15,1.15,0,0,0,2,.28Z"/><path class="cls-31" d="M806,433.82a4.69,4.69,0,1,1-4.69-4.7A4.69,4.69,0,0,1,806,433.82Z"/><polygon class="cls-32" points="756.76 402 715.41 360.63 689.04 360.63 689.04 359 716.09 359 716.33 359.24 757.92 400.84 756.76 402"/><polygon class="cls-32" points="811.35 404.63 809.75 404.32 816.81 367.56 838.07 367.56 838.07 369.2 818.16 369.2 811.35 404.63"/><polygon class="cls-32" points="749.42 482.08 725.54 482.08 725.54 480.45 748.75 480.45 778.17 451.01 779.32 452.17 749.42 482.08"/><rect class="cls-2" x="642.97" y="349.92" width="38.82" height="11.42"/><rect class="cls-2" x="842.24" y="357.33" width="17.84" height="11.42"/><rect class="cls-2" x="702" y="470.43" width="17.84" height="11.42"/><path class="cls-33" d="M1092.48,26.52a10.6,10.6,0,1,0,10.6-10.61A10.6,10.6,0,0,0,1092.48,26.52Z"/><path class="cls-34" d="M1059.45,26.52a10.6,10.6,0,1,0,10.6-10.61A10.6,10.6,0,0,0,1059.45,26.52Z"/><path class="cls-35" d="M1125.5,26.52a10.61,10.61,0,1,0,10.61-10.61A10.61,10.61,0,0,0,1125.5,26.52Z"/></g><polygon id="JALOUSIE" class="cls-2" points="1574.53 10.63 1574.53 23.92 1920 23.92 1920 31.51 1574.53 31.51 1574.53 44.8 1920 44.8 1920 52.4 1574.53 52.4 1574.53 65.69 1920 65.69 1920 73.29 1574.53 73.29 1574.53 87.06 1920 87.06 1920 94.65 1574.53 94.65 1574.53 107.94 1920 107.94 1920 115.54 1574.53 115.54 1574.53 128.83 1920 128.83 1920 136.43 1574.53 136.43 1574.53 149.72 1920 149.72 1920 157.31 1574.53 157.31 1574.53 170.61 1920 170.61 1920 178.2 1574.53 178.2 1574.53 191.5 1920 191.5 1920 199.09 1574.53 199.09 1574.53 212.38 1920 212.38 1920 219.59 1574.53 219.59 1574.53 233.2 1920 233.2 1920 240.8 1574.53 240.8 1574.53 254.09 1920 254.09 1920 261.69 1574.53 261.69 1574.53 274.98 1920 274.98 1920 282.57 1574.53 282.57 1574.53 295.86 1920 295.86 1920 303.46 1574.53 303.46 1574.53 316.28 1920 316.28 1920 323.87 1574.53 323.87 1574.53 337.17 1920 337.17 1920 344.76 1574.53 344.76 1574.53 358.06 1920 358.06 1920 365.65 1574.53 365.65 1574.53 378.94 1920 378.94 1920 386.54 1574.53 386.54 1574.53 400.3 1920 400.3 1920 407.9 1574.53 407.9 1574.53 421.19 1920 421.19 1920 428.79 1574.53 428.79 1574.53 442.08 1920 442.08 1920 449.68 1574.53 449.68 1574.53 462.97 1920 462.97 1920 470.56 1574.53 470.56 1574.53 483.85 1920 483.85 1920 491.45 1574.53 491.45 1574.53 504.74 1920 504.74 1920 512.34 1574.53 512.34 1574.53 525.63 1920 525.63 1920 533.23 1574.53 533.23 1574.53 546.52 1920 546.52 1920 554.11 1574.53 554.11 1574.53 567.4 1566.94 567.4 1566.94 554.11 1526.13 554.11 1526.13 546.52 1566.94 546.52 1566.94 533.23 1526.13 533.23 1526.13 525.63 1566.94 525.63 1566.94 512.34 1526.13 512.34 1526.13 504.74 1566.94 504.74 1566.94 491.45 1526.13 491.45 1526.13 483.85 1566.94 483.85 1566.94 470.56 1526.13 470.56 1526.13 462.97 1566.94 462.97 1566.94 449.68 1526.13 449.68 1526.13 442.08 1566.94 442.08 1566.94 428.79 1526.13 428.79 1526.13 421.19 1566.94 421.19 1566.94 407.9 1526.13 407.9 1526.13 400.3 1566.94 400.3 1566.94 386.54 1526.13 386.54 1526.13 378.94 1566.94 378.94 1566.94 365.65 1526.13 365.65 1526.13 358.06 1566.94 358.06 1566.94 344.76 1526.13 344.76 1526.13 337.17 1566.94 337.17 1566.94 323.87 1526.13 323.87 1526.13 316.28 1566.94 316.28 1566.94 303.46 1526.13 303.46 1526.13 295.86 1566.94 295.86 1566.94 282.57 1526.13 282.57 1526.13 274.98 1566.94 274.98 1566.94 261.69 1526.13 261.69 1526.13 254.09 1566.94 254.09 1566.94 240.8 1526.13 240.8 1526.13 233.2 1566.94 233.2 1566.94 219.97 1526.13 219.97 1526.13 212.38 1566.94 212.38 1566.94 199.09 1526.13 199.09 1526.13 191.5 1566.94 191.5 1566.94 178.2 1526.13 178.2 1526.13 170.61 1566.94 170.61 1566.94 157.31 1526.13 157.31 1526.13 149.72 1566.94 149.72 1566.94 136.43 1526.13 136.43 1526.13 128.83 1566.94 128.83 1566.94 115.54 1526.13 115.54 1526.13 107.94 1566.94 107.94 1566.94 94.65 1526.13 94.65 1526.13 87.06 1566.94 87.06 1566.94 73.29 1526.13 73.29 1526.13 65.69 1566.94 65.69 1566.94 52.4 1526.13 52.4 1526.13 44.8 1566.94 44.8 1566.94 31.51 1526.13 31.51 1526.13 23.92 1566.94 23.92 1566.94 10.63 1526.13 10.63 1526.13 3.03 1920 3.03 1920 10.63 1574.53 10.63"/><g id="TABLE"><rect class="cls-36" x="1368.97" y="770.19" width="16.15" height="237.65"/><rect class="cls-37" x="1427.1" y="770.19" width="16.15" height="237.65"/><rect class="cls-36" x="1542.3" y="770.19" width="16.15" height="237.65"/><rect class="cls-37" x="1600.44" y="770.19" width="16.15" height="237.65"/><g id="TABLE-2" data-name="TABLE"><rect class="cls-36" x="1216.09" y="754.91" width="478.01" height="15.77"/></g><rect class="cls-37" x="1686.92" y="754.91" width="75.36" height="15.77"/></g><g id="COMPUTER"><path class="cls-2" d="M1660.15,588.34l13.3,108.43a7.77,7.77,0,0,1-7.87,9H1491.65a10.44,10.44,0,0,1-10.07-9l-13.31-108.43a7.77,7.77,0,0,1,7.87-9h173.93A10.45,10.45,0,0,1,1660.15,588.34Z"/><path class="cls-2" d="M1671.65,683.39l1.64,13.38a7.77,7.77,0,0,1-7.87,9H1491.65a10.44,10.44,0,0,1-10.07-9l-1.64-13.38Z"/><path class="cls-37" d="M1589.16,754.87h-30.81a10.93,10.93,0,0,1-9.74-12.59l3.29-26.85,1.19-9.69h30.81l-1.19,9.69-3.29,26.85A10.93,10.93,0,0,0,1589.16,754.87Z"/><polygon class="cls-38" points="1583.9 705.74 1582.71 715.43 1551.9 715.43 1553.09 705.74 1583.9 705.74"/><path class="cls-37" d="M1666.29,680.7a1.85,1.85,0,0,1-1.79,2.2H1493.68a2.5,2.5,0,0,1-2.34-2.2l-11.45-93.29a1.85,1.85,0,0,1,1.8-2.19h170.82a2.48,2.48,0,0,1,2.33,2.19Z"/><path class="cls-39" d="M1637,645a1.76,1.76,0,0,1-1.79,2h-70.57a2.37,2.37,0,0,1-2.28-2l-5.76-46.91a1.77,1.77,0,0,1,1.79-2h70.57a2.37,2.37,0,0,1,2.28,2Z"/><path class="cls-2" d="M1596.09,664.35a1.77,1.77,0,0,1-1.79,2h-70.57a2.38,2.38,0,0,1-2.28-2l-5.76-46.9a1.77,1.77,0,0,1,1.79-2h70.57a2.37,2.37,0,0,1,2.28,2Z"/><path class="cls-40" d="M1575.89,628.45a1.76,1.76,0,0,1-1.78,2h-39a2.37,2.37,0,0,1-2.29-2l0-.23a1.77,1.77,0,0,1,1.79-2h39a2.36,2.36,0,0,1,2.28,2Z"/><path class="cls-40" d="M1577.13,638.51a1.76,1.76,0,0,1-1.79,2h-39a2.36,2.36,0,0,1-2.28-2l0-.24a1.76,1.76,0,0,1,1.78-2h39a2.37,2.37,0,0,1,2.29,2Z"/><path class="cls-40" d="M1578.36,648.56a1.76,1.76,0,0,1-1.79,2h-39a2.37,2.37,0,0,1-2.28-2l0-.24a1.77,1.77,0,0,1,1.79-2h39a2.38,2.38,0,0,1,2.28,2Z"/><path class="cls-41" d="M1498.11,705.74h-6.46a10.44,10.44,0,0,1-10.07-9l-13.31-108.43a7.77,7.77,0,0,1,7.87-9h6.46a7.77,7.77,0,0,0-7.87,9L1488,696.77A10.44,10.44,0,0,0,1498.11,705.74Z"/><path class="cls-41" d="M1589.29,692.59a5.28,5.28,0,0,1-5.35,6.1,7.09,7.09,0,0,1-6.85-6.1,5.28,5.28,0,0,1,5.35-6.11A7.09,7.09,0,0,1,1589.29,692.59Z"/><polygon class="cls-2" points="1686.3 755.93 1603.95 755.93 1603.95 747.14 1686.3 749.65 1686.3 755.93"/></g><g id="_4_MAN" data-name="4 MAN"><path id="CHAIR" class="cls-42" d="M1739.19,829.23c-2.52,0-4.57,2.65-4.57,5.92s2.05,5.92,4.57,5.92h56L1754,1010h8.18l37.37-153.15L1817,928.28,1797,1010h8.18L1821.05,945,1836.9,1010h8.18l-19.94-81.69,17.44-71.46L1880,1010h8.18l-41.22-168.9H1852c16.89,0,33-13.69,36-30.58l21.67-123a16.59,16.59,0,0,0,.21-1.69c0-.33,0-.67,0-1,0-.17,0-.34,0-.5s0-.26,0-.38,0-.07,0-.1,0-.12,0-.19a2.11,2.11,0,0,0,0-.26l-.06-.52c0-.09,0-.18,0-.27a.2.2,0,0,0,0-.1,2.51,2.51,0,0,0,0-.27c-.08-.41-.18-.82-.3-1.22l-.09-.3c-.06-.18-.12-.36-.19-.54s-.24-.62-.38-.93l-.12-.24a11.93,11.93,0,0,0-2.06-3l-.29-.29c-.11-.11-.22-.22-.34-.32h0l-.33-.29c-.12-.1-.24-.2-.37-.29l-.37-.28-.36-.25s0,0-.06,0l-.37-.22-.41-.24c-.29-.16-.59-.3-.89-.44l0,0c-.25-.11-.49-.21-.75-.3l-.06,0h0a13.9,13.9,0,0,0-4.78-.82h-37.55c3.7,43.72,1.54,122.1.59,130.69-1.55,14-23.66,25-74,26.28l-25.41,0Zm81.86,82.3-17.19-70.46h34.39Z"/><g id="_4_MAN-2" data-name="4 MAN"><path class="cls-43" d="M1860.14,802.92c-1.55,14-23.66,25-74,26.28l-1.08,0c-1.49,0-3,.06-4.55.07-16.69.17-30.91,0-42.89.3-15.71.36-27.6,1.43-36.27,4.82-6.25,2.45-10.83,6.1-14,11.57-4.6,8.07-20,34.68-36,62.49-18.87,32.68-38.71,67-43.22,74.79H1577c4.72-17.15,45.75-164,72.21-180.35,24.44-15.11,96.91-26.4,121.45-29.88,5.18-.73,8.23-1.12,8.23-1.12v-.41l.56-17.59s0-.08,0-.26c-20.26-1.15-65.81-13-88.44-19.19-8.13-2.21-13.3-3.7-13.3-3.7l-3.22-5.92s19.37-10.77,43.06-11.85c19.35-.88,46.82,2.7,50.58-3.77s23.69-65.86,36.07-69.09a11.67,11.67,0,0,1,1.31-.26h0c.2-.09.39-.16.59-.23a7.83,7.83,0,0,1,1.86-.41,185.06,185.06,0,0,1,28-.86c.86,0,1.73.11,2.58.19l1.64.17c3.21,3.9,21.48,27.12,24.88,54.55C1865.92,737.37,1861,795.59,1860.14,802.92Z"/><path class="cls-44" d="M1827.69,691.7c-6.51,27.12-22.49,79.55-48.82,79.81h0l.56-17.59s0-.08,0-.25c1.37.07,2.63.1,3.76.07C1801.17,753.34,1819.79,711.68,1827.69,691.7Z"/><path class="cls-45" d="M1674.46,724.85s-26.38,21-24.76,22.61,8.79,4.31,14.71,1.08,13.28-17.77,13.28-17.77Z"/><path class="cls-46" d="M1811.93,613.69a185.28,185.28,0,0,0-15.45,11.71l0-.08s-14.54,10.66-21.8,7.27-.49-20.36-.49-20.36,22.77-.48,24.71-1,5.33-20.83,1.45-26.16c-3-4.08-14.41,4-22.45,3.52a7.26,7.26,0,0,1-6.13-3.52c-6.3-10.18,1.94-22.78,8.24-22.78s23.73,2.43,37.29,7.76,2.91,40.7,2.91,40.7S1817.65,610.11,1811.93,613.69Z"/><path class="cls-45" d="M1798.85,611.26c-1.94.49-24.71,1-24.71,1l3.71-23.61c8,.5,19.49-7.6,22.45-3.52C1804.18,590.43,1800.79,610.78,1798.85,611.26Z"/><path class="cls-45" d="M1838.53,638.58c-.85-.09-1.72-.15-2.58-.2a185.06,185.06,0,0,0-28,.86,7.83,7.83,0,0,0-1.86.41l-9.6-14.25a185.28,185.28,0,0,1,15.45-11.71c5.72-3.58,8.23-2.91,8.23-2.91Z"/><path class="cls-47" d="M1701.32,834.42c-.08,1.42-.28,4.64-.55,9.13-1,15.56-3,46.38-5.32,70.28-2.52,26-9.91,56.95-13.07,69.44h-27.14c-.65-9.94-2-31.79-3.1-55.5-.29-6.36-.56-12.85-.8-19.29,16.06-27.81,31.43-54.42,36-62.49C1690.49,840.52,1695.07,836.87,1701.32,834.42Z"/><path class="cls-44" d="M1701.32,834.42c-.08,1.42-.28,4.64-.55,9.13-.29.44-.57.9-.84,1.37-4.61,8.06-20,34.68-36,62.49l-11.76,20.36c-.29-6.36-.56-12.85-.8-19.29,16.06-27.81,31.43-54.42,36-62.49C1690.49,840.52,1695.07,836.87,1701.32,834.42Z"/><path class="cls-45" d="M1675,989.25l-15.25,5.37-.36-12h14.83S1674.49,985.76,1675,989.25Z"/><path class="cls-42" d="M1599.32,996.26l-8,12.16h-29.82s2-8.39,7.24-10c2.77-.85,10.71-2.18,10.71-2.18Z"/><polygon class="cls-45" points="1608.12 983.27 1599.58 996.31 1583.18 996.31 1586.65 982.91 1608.12 983.27"/><path class="cls-42" d="M1663.32,1005.16l-16.51,5a12.77,12.77,0,0,1-.48-5.27c.48-2.15,13.4-10.28,13.4-10.28v0l15.25-5.37a50,50,0,0,0,1.73,8.49C1678.15,1001.57,1663.32,1005.16,1663.32,1005.16Z"/></g></g><g id="_3_MAN" data-name="3 MAN"><g id="CLOTHES"><path class="cls-42" d="M1259.24,1004.48s-13.61-10.21-21.86-16.67-7.07-10.77-7.07-10.77l.63-5.11,15,5.43a91.66,91.66,0,0,0,7.89,9C1261.28,993.46,1259.24,1004.48,1259.24,1004.48Z"/><path class="cls-42" d="M1330.27,1009s-33.72.36-35.52-.36c-.7-.28-1.66-6.07-2.59-11.4h18s6.82,1.08,12.92,1.44S1330.27,1009,1330.27,1009Z"/><path class="cls-45" d="M1310.18,997.24h-18c-1.45-8.4-2.79-19.36-2.79-19.36l20.45,0Z"/><polygon class="cls-45" points="1248.39 962 1245.95 977.36 1230.94 971.93 1229.88 955.3 1248.39 962"/><path class="cls-48" d="M1269,885.67c.56,5.28,1.87,13.69,3.5,23.25-1.66,4.5-3.29,8.86-4.85,13-9,23.93-15.87,41.26-15.87,41.26l-3.34-1.2-18.51-6.7-3.45-1.25s-1.61-48.46,6.46-93.15a142.89,142.89,0,0,1,9.87-31.45h10.48l13.23-.51,8.94-.34S1266.8,865.21,1269,885.67Z"/><path class="cls-49" d="M1253.24,829.45h-10.48c10.08-23.1,24-41.77,30.13-49.38,12.75,2.66,27.79,5.48,36.08,10,3.76,2,6.13,4.43,6.27,7.31.53,11.31,0,180.51,0,180.51h-30.68s-7.41-41.48-12.11-69c-1.63-9.56-2.94-18-3.5-23.25-2.15-20.46,6.46-57.07,6.46-57.07Z"/><path class="cls-44" d="M1269,885.67c.56,5.28,1.87,13.69,3.5,23.25-1.66,4.5-3.29,8.86-4.85,13-10.45-21.64-8.73-60.85-6.22-74.16a163,163,0,0,1,5.09-18.84l8.94-.34S1266.8,865.21,1269,885.67Z"/><path class="cls-36" d="M1310.76,732.91l-.45,14.14s2.32,1.62-12.11,3.82c-19.48,3-44.7,3.2-60.47,2.89-7.89-.16-18-6.41-28.27-15.47h0c-3,5.68-5.87,11.32-8,16-3,6.76-4.34,11.59-2,11.82s11.06,1.51,21.63,3.27c13.37,2.23,29.77,5.25,40.27,8,3.36.89,7.3,1.75,11.47,2.62-6.1,7.61-20.05,26.28-30.13,49.38h-11v0h-83.32c-16.88,0-33-13.69-36-30.58l-.6-3.39h0l-1.44-8.16c0-.41-.05-.81-.06-1.22-1.33-33.74,16.94-85.21,33.18-113.61a90.56,90.56,0,0,1,10.78-15.6c11.83-12.93,20.44-18.84,46.82-18.84,2.16,0,8.56.07,16.26.58a177.39,177.39,0,0,1,18.37,2.06c1.61.28,3.2.58,4.71.93a51.15,51.15,0,0,1,8.61,2.64,18.73,18.73,0,0,1,4.15,2.38l.64.55c1.27,1.2,2.82,2.86,4.54,4.83,10.72,12.26,28.29,36.63,28.29,36.63l21-32.21,13.48,19.29s1.61,47.92-18.3,50.07-50.06-30.15-50.06-30.15a83.55,83.55,0,0,0-16,7.11c7.17,11.68,12.27,20.35,12.27,20.35Z"/><path class="cls-44" d="M1209.46,738.29c-3,5.68-5.87,11.32-8,16-18.85-18.58-33.61-56.64-36.25-63.55a81,81,0,0,1-3.62-11.73C1169.68,694,1190,721.18,1209.46,738.29Z"/></g><path id="CHAIR-2" data-name="CHAIR" class="cls-42" d="M1256.3,831a4.05,4.05,0,0,0-3.06-1.52h-21.51v0h-83.32c-16.88,0-33-13.69-36-30.58l-.59-3.39h0l-1.45-8.16c0-.4-.05-.81-.06-1.21-1.33-33.75,16.94-85.22,33.18-113.63h-48.21a14.14,14.14,0,0,0-4.78.82h0l-.06,0c-.25.09-.5.19-.74.3l0,0c-.31.14-.61.28-.9.44l-.41.23-.36.23-.06,0-.37.25-.37.28a4.57,4.57,0,0,0-.36.29l-.33.28,0,0c-.12.1-.23.21-.34.32s-.19.19-.29.29a11.93,11.93,0,0,0-2.06,3l-.12.24c-.14.3-.26.61-.38.93s-.13.36-.19.54l-.09.3c-.12.4-.21.81-.29,1.22a2.56,2.56,0,0,0,0,.27.36.36,0,0,0,0,.1,2.51,2.51,0,0,0,0,.27,4.35,4.35,0,0,0-.06.52l0,.26a1.28,1.28,0,0,0,0,.19.31.31,0,0,0,0,.1c0,.12,0,.24,0,.37s0,.34,0,.51c0,.33,0,.66,0,1a16.59,16.59,0,0,0,.21,1.69l21.68,123c3,16.89,19.08,30.58,36,30.58h5.12l-41.22,168.9h8.18L1149.85,857l17.44,71.45-19.94,81.7h8.18l15.85-64.94,15.85,64.94h8.18l-19.94-81.7L1192.91,857l37.37,153.15h8.18l-41.22-168.9h56c2.53,0,4.58-2.65,4.58-5.92A6.79,6.79,0,0,0,1256.3,831Zm-84.92,80.78-17.2-70.46h34.4Z"/><g id="MICROSCOPE"><rect class="cls-50" x="1302.46" y="710.29" width="73.89" height="7.39"/><rect class="cls-42" x="1302.46" y="713.84" width="73.89" height="3.85"/><path class="cls-42" d="M1318.37,725.43a11.49,11.49,0,0,0-7.13,7.7c-14.2-8.1-23.68-22.76-23.68-39.48a43.48,43.48,0,0,1,.65-7.53,42.63,42.63,0,0,1,1.8-6.92,46.42,46.42,0,0,1,16.36-21.87c.43-.32.87-.63,1.31-.93l5.89,8.42c-.44.31-.87.63-1.28.95a35.38,35.38,0,0,0-13.89,27.88C1298.4,707.35,1306.47,719.28,1318.37,725.43Z"/><rect class="cls-2" x="1287.12" y="622.69" width="15.96" height="3.6" transform="translate(-124 855.61) rotate(-34.99)"/><polygon class="cls-37" points="1294.17 627.34 1294.51 627.83 1296.29 630.37 1300.22 627.62 1298.44 625.08 1298.1 624.59 1294.17 627.34"/><polygon class="cls-50" points="1291.72 633.57 1330.59 689.11 1343.66 679.95 1304.79 624.42 1300.22 627.62 1296.29 630.37 1291.72 633.57"/><path class="cls-51" d="M1306.37,657.33l5.92,8.44c.41-.32.84-.64,1.28-1l-5.89-8.41C1307.24,656.7,1306.8,657,1306.37,657.33Z"/><path class="cls-52" d="M1331,689.62c1.42,2,5.5,1.62,9.11-.9s5.38-6.23,4-8.26a2.3,2.3,0,0,0-.42-.46l-12.94,9.06A2.29,2.29,0,0,0,1331,689.62Z"/><path class="cls-42" d="M1338.44,694.05a.39.39,0,0,0,.49.17l6.69-4.69c.13-.09.13-.32,0-.51l-2.06-2.95a.38.38,0,0,0-.49-.17l-6.69,4.69c-.13.09-.13.32,0,.51Z"/><rect class="cls-52" x="1323.82" y="676.18" width="15.96" height="1.48" transform="translate(-147.47 885.91) rotate(-34.98)"/><polygon class="cls-52" points="1287.53 627.59 1289.6 630.54 1290.01 630.26 1302.67 621.39 1300.95 618.92 1300.61 618.44 1287.53 627.59"/><polygon class="cls-52" points="1291.72 633.57 1293.79 636.53 1306.86 627.37 1304.8 624.42 1300.38 627.51 1299.38 628.21 1291.72 633.57"/><path class="cls-2" d="M1295.52,715.61c0,.16,0,.31,0,.47s0,.27,0,.4a5.19,5.19,0,0,0,.24,1v0a5.66,5.66,0,0,0,3.7,3.53,6.43,6.43,0,0,0,.76.17,6,6,0,0,0,.85.06,5.63,5.63,0,0,0,5.55-4.75c0-.13,0-.26,0-.4s0-.07,0-.11a1,1,0,0,1,0-.17v-.19a5.62,5.62,0,0,0-5.62-5.62,6,6,0,0,0-.85.06,6.43,6.43,0,0,0-.76.17A5.62,5.62,0,0,0,1295.52,715.61Z"/><path class="cls-52" d="M1299,715.61a2.19,2.19,0,1,0,2.19-2.19A2.19,2.19,0,0,0,1299,715.61Z"/><path class="cls-42" d="M1298,638.26a2.24,2.24,0,0,0,0,.46c0,.06,0,.11,0,.17a1.34,1.34,0,0,0,1.18,1.06h1.17a2.63,2.63,0,0,1,2.63,2.63v1.17c0,.7.76,1.27,1.69,1.27s1.69-.57,1.69-1.27v-1.17a2.62,2.62,0,0,1,2.62-2.63h1.18a1.34,1.34,0,0,0,1.18-1.06c0-.06,0-.11,0-.17a2.32,2.32,0,0,0,0-.46c0-.93-.56-1.69-1.26-1.69h-1.18a2.62,2.62,0,0,1-2.62-2.62v-1.18c0-.7-.76-1.27-1.69-1.27s-1.69.57-1.69,1.27V634a2.62,2.62,0,0,1-2.63,2.62h-1.17C1298.55,636.57,1298,637.33,1298,638.26Zm5.12,0a1.64,1.64,0,0,1,3.28,0,1.7,1.7,0,0,1-.06.46l-.06.17a1.64,1.64,0,0,1-3,0l-.06-.17A1.7,1.7,0,0,1,1303.1,638.26Z"/><rect class="cls-42" x="1332.73" y="717.68" width="6.88" height="7.3"/><rect class="cls-52" x="1310.46" y="750.43" width="56.15" height="4.43"/><path class="cls-50" d="M1310.46,737.55v12.88h56.16V737.55a2.81,2.81,0,0,0,0-.29V737a.43.43,0,0,0,0,0,2.62,2.62,0,0,0,0-.28c0-.07,0-.15,0-.22a.71.71,0,0,1,0-.14,1.49,1.49,0,0,1,0-.21l0-.23h0c0-.06,0-.12,0-.19h0l0-.2c0-.09,0-.18,0-.27l0-.18V735c0-.08,0-.16,0-.24l-.06-.27a2,2,0,0,1,0-.24.08.08,0,0,1,0,0,1.82,1.82,0,0,0-.07-.25l-.06-.27c0-.08,0-.17-.08-.26s0-.17-.08-.26l-.06-.17a2.42,2.42,0,0,0-.12-.35l-.06-.17c-.06-.17-.13-.34-.2-.5l-.06-.14a.69.69,0,0,1,0-.13l-.07-.13c-.08-.19-.18-.38-.27-.57l-.09-.16-.19-.35a1.4,1.4,0,0,1-.1-.16,11.53,11.53,0,0,0-2.23-2.74l-.12-.11-.12-.11h0c-.3-.25-.61-.48-.92-.7l-.13-.08-.15-.1-.14-.08a2.61,2.61,0,0,0-.28-.17c-.23-.13-.47-.26-.72-.37l-.26-.12-.21-.08-.06,0-.21-.08-.08,0-.18-.07h-.06l-.16-.06-.17,0h0l-.17,0-.17,0-.17,0-.5-.1-.18,0h-.2l-.35,0-.35,0h-35.31a9.07,9.07,0,0,0-2.8.45,11.49,11.49,0,0,0-7.13,7.7A14.55,14.55,0,0,0,1310.46,737.55Z"/><path class="cls-53" d="M1310.46,737.55v12.88h9.72V737.55a14.55,14.55,0,0,1,.68-4.42,11.49,11.49,0,0,1,7.13-7.7,9,9,0,0,1,2.8-.45h-9.72a9.07,9.07,0,0,0-2.8.45,11.49,11.49,0,0,0-7.13,7.7A14.55,14.55,0,0,0,1310.46,737.55Z"/><rect class="cls-54" x="1356.9" y="750.43" width="9.72" height="4.43"/><path class="cls-55" d="M1346.29,725a9,9,0,0,1,2.79.45,11.51,11.51,0,0,1,7.14,7.7,14.55,14.55,0,0,1,.68,4.42v12.88h9.72V737.55a2.81,2.81,0,0,0,0-.29V737a.43.43,0,0,0,0,0,2.62,2.62,0,0,0,0-.28c0-.07,0-.15,0-.22a.71.71,0,0,1,0-.14,1.49,1.49,0,0,1,0-.21l0-.23h0c0-.06,0-.12,0-.19h0l0-.2c0-.09,0-.18,0-.27l0-.18V735c0-.08,0-.16,0-.24l-.06-.27a2,2,0,0,1,0-.24.08.08,0,0,1,0,0,1.82,1.82,0,0,0-.07-.25l-.06-.27c0-.08,0-.17-.08-.26s0-.17-.08-.26l-.06-.17a2.42,2.42,0,0,0-.12-.35l-.06-.17c-.06-.17-.13-.34-.2-.5l-.06-.14a.69.69,0,0,1,0-.13l-.07-.13c-.08-.19-.18-.38-.27-.57l-.09-.16-.19-.35a1.4,1.4,0,0,1-.1-.16,11.53,11.53,0,0,0-2.23-2.74l-.12-.11-.12-.11h0c-.3-.25-.61-.48-.92-.7l-.13-.08-.15-.1-.14-.08a2.61,2.61,0,0,0-.28-.17c-.23-.13-.47-.26-.72-.37a8,8,0,0,0-1.06-.41l-.16-.06-.17,0h0l-.17,0-.17,0-.17,0-.5-.1-.18,0h-.2l-.35,0-.35,0h-10.09Z"/><path class="cls-52" d="M1332.11,707.33v2.83h31.69v-2.83a2.17,2.17,0,0,0-2.18-2.17h-27.34A2.17,2.17,0,0,0,1332.11,707.33Z"/></g><g id="HANDS"><path class="cls-45" d="M1309.32,632.08s8.07-1.08,11.84,5.39,3.23,14.53,3.23,14.53l-6.46-8.07s-9.15,1.07-10.76-3.23S1306.09,631.54,1309.32,632.08Z"/><path class="cls-45" d="M1310,732.72s10.23-1.61,14-.54,8.61,4.85,2.15,9.16S1310,747.8,1310,747.8Z"/></g><g id="HEAD"><path class="cls-45" d="M1280.76,611h0c-.13.34-.26.68-.41,1-4.71,11.41-19.75,27-21.93,27-.73,0-2.42-.94-4.36-2.2a57.85,57.85,0,0,0-5,7.42,45.78,45.78,0,0,0-5.32,14.09,6.84,6.84,0,0,0-.11.69l-.33.19c-3,1.65-25.23,12.87-26.22-20.29l.29-.31c2-2.12,13.64-14.58,18.35-20.62,1.5-1,12.4-8.15,14.9-10.65,10.23-10.23,15.37-15.78,25.3-9.7C1285.51,603.48,1280.91,610.76,1280.76,611Z"/><path class="cls-46" d="M1296.4,596c-2,7-13.6,13.81-15.41,14.85l-.23.13h0c.15-.22,4.75-7.5-4.81-13.36-9.93-6.08-15.07-.53-25.3,9.7-2.5,2.5-13.4,9.67-14.9,10.65l-.17.11s10.23-46.3,21-44.15,21.53,10.23,29.6,8.62C1290.93,581.6,1298.55,588.47,1296.4,596Z"/><path class="cls-56" d="M1254.12,636.72a56.54,56.54,0,0,0-5,7.51,46,46,0,0,0-5.32,14.08c-.09.45-.12.69-.12.69l-.32.19c-7.5-6.91-8.79-11.8-6.28-21.59,2.41-9.4,6-15.19,7.31-12.27C1246,629.14,1250.59,633.63,1254.12,636.72Z"/></g></g><g id="_2_MAN" data-name="2 MAN"><g id="CLOTHES-2" data-name="CLOTHES"><path class="cls-46" d="M1033.07,872c0,1.68-.17,12.09-3.12,12.09H999.44s.8-8.8,16.31-12.3l.08.21Z"/><path class="cls-46" d="M937.55,872c0,1.68-.18,12.09-3.13,12.09h-30.5s.77-8.47,15.43-12.09Z"/><path class="cls-57" d="M956.38,739.77c-.72,50.82-15.13,116.53-18.74,132.23H919.15l-.71-132.23-.07-12.84h37.88C956.4,731.07,956.44,735.37,956.38,739.77Z"/><path class="cls-58" d="M1033.07,872v0h-17.24l-.08-.21-48.24-132-4.7-12.84h42.88a79.66,79.66,0,0,1,6.23,12.84c16,40.7,20.45,118.29,21.14,132C1033.06,871.84,1033.07,871.91,1033.07,872Z"/><path class="cls-53" d="M1005.69,726.92H962.81l4.7,12.85h44.41A81.49,81.49,0,0,0,1005.69,726.92Z"/><path class="cls-53" d="M918.37,726.92l.07,12.85h37.94c.06-4.4,0-8.7-.13-12.85Z"/><path class="cls-36" d="M1015.49,726.93H912.4l5.14-178.29c-7.26,1.33-43.63,8.5-60.51,7.38-18.35-1.23-53.82-69.14-53.82-69.14l.39-.08a.33.33,0,0,0,0,.08l17.94-3.67s34.25,37.94,47.71,37.94,66.46-29.58,66.46-29.58l0,.24c3.71-2.3,8.75-3.87,14.33-4.92.89-.17,1.78-.32,2.69-.47a150.53,150.53,0,0,1,23.25-1.6l2.52,0c12.48.3,16.56,11.94,18.37,15.83.64,1.4,1.27,3,1.88,4.65.36,1,.72,2.1,1.07,3.23C1016.52,562.31,1015.49,726.93,1015.49,726.93Z"/></g><path id="HAND" class="cls-45" d="M821.56,483.21l-17.94,3.67a.33.33,0,0,1,0-.08c-.39-1.07-4.74-13.3-5.13-15.25s6.52-7.34,6.52-7.34-6.52-11.83-2.85-12.65C804.53,451,821.56,483.21,821.56,483.21Z"/><g id="HEAD-2" data-name="HEAD"><path class="cls-45" d="M963.42,446s-.3,2.64-.48,6a14.9,14.9,0,0,1-16.15,3.67c-6.75-2.42-7.92-3.51-7.92-3.51s-.06.11-.15.32c1.24-5.32,3.31-12.14,5.21-20.52a15,15,0,0,1,.47-1.64,51.46,51.46,0,0,0,9.88,3.31C958.16,434.64,961.92,442.3,963.42,446Z"/><path class="cls-45" d="M978,467.91c-.8,6.33-1.54,12.38-2.08,16.91a150.53,150.53,0,0,0-23.25,1.6c-.91.15-1.8.3-2.69.47l-.21,0-.14-14.32a7.12,7.12,0,0,0-.51-.57c6.64-1.29,11.69-8,13.85-11.32.21,1.85.6,3.29,1.27,3.89C966.21,466.26,973.14,470.17,978,467.91Z"/><path class="cls-46" d="M982.43,461.93c-.87,3.27-2.48,5.1-4.39,6-4.9,2.26-11.83-1.65-13.76-3.36-.67-.6-1.06-2-1.27-3.89-2.16,3.37-7.21,10-13.85,11.32a11.7,11.7,0,0,1-6.07-.42c-11.16-3.75-5.43-16.89-4.37-19.1.09-.21.15-.32.15-.32s1.17,1.09,7.92,3.51A14.9,14.9,0,0,0,962.94,452c.18-3.31.48-6,.48-6-1.5-3.73-5.26-11.39-9.14-12.42a51.46,51.46,0,0,1-9.88-3.31c-4-2-7.78-5.05-8.2-9.86-.82-9.36,13.67-13.79,16.93-10.42s24.31,15.51,30.63,19C991.31,433.22,985.55,450.3,982.43,461.93Z"/></g></g><g id="_1_MAN" data-name="1 MAN"><g id="CLOTHES-3" data-name="CLOTHES"><polygon class="cls-46" points="558.76 736.07 557.98 744.28 557.97 744.47 547.38 868.44 524.27 868.44 521.97 744.47 521.97 744.28 521.71 736.07 558.76 736.07"/><rect class="cls-45" x="528.93" y="868.22" width="18.21" height="4.67"/><polygon class="cls-59" points="521.67 735.76 521.96 744.94 521.97 745.13 557.97 745.13 557.98 744.94 558.79 736.46 521.67 735.76"/><path class="cls-46" d="M559.21,884.38h-21.9a15.57,15.57,0,0,1-2.67-.83c-5.71-2.45-5.67-10.66-5.67-10.66h18.2C554.81,879.37,558.45,882.77,559.21,884.38Z"/><polygon class="cls-46" points="620.13 736.07 619.87 744.28 619.86 744.47 617.56 868.44 594.46 868.44 583.87 744.47 583.85 744.28 583.07 736.07 620.13 736.07"/><rect class="cls-45" x="594.7" y="868.22" width="18.21" height="4.67"/><polygon class="cls-59" points="620.16 735.76 619.87 744.94 619.86 745.13 583.87 745.13 583.85 744.94 583.04 736.46 620.16 735.76"/><path class="cls-46" d="M623,884.38H602.11a17.06,17.06,0,0,1-2.56-.83c-5.71-2.45-4.86-10.66-4.86-10.66H612.9C620.54,879.37,623.11,882.77,623,884.38Z"/><path class="cls-32" d="M552,460.21l20.62,76.54,26.28-75,.11-.31a92.41,92.41,0,0,0-11.78-6.1h-.46l-1.17.95c-3.33,2.69-8.44,6.69-9.41,6.69s-6.67-3.91-10.62-6.69L564,455.16a1.33,1.33,0,0,1-.19-.14h0a63.52,63.52,0,0,0-11,4.73Z"/><path class="cls-2" d="M599,461.43l-.11.31c-2.39,2.53-10.41,10.88-12.48,11.3,0,0-3-9.19-7.85-11.37,2-1.4,4.9-3.67,7-5.39l1.17-.95h.46l.29.12,0,0A92.62,92.62,0,0,1,599,461.43Z"/><path class="cls-2" d="M566.47,472.55h0c-2.27,0-10.69-9.45-13.61-12.8a61.32,61.32,0,0,1,11-4.73h0l.18.14.21.15.58.4.79.56c2.65,1.87,6.1,4.24,8.37,5.6C569.36,464.33,566.47,472.55,566.47,472.55Z"/><path class="cls-46" d="M586.44,473l-7.62,3.83a136.4,136.4,0,0,1,6.51,23.66l-12.69,36.22L563,500.5c2.53-9,7.28-18.46,10.41-24.16l-7-3.78h0s2.89-8.22,7.49-10.67a2.85,2.85,0,0,0,4.63-.21c4.86,2.18,7.85,11.37,7.85,11.37Z"/><path class="cls-2" d="M651.15,550.7c-6.76-18.78-13.41-43.7-16.54-56-1-3.73-1.59-6.29-1.8-7.13,0-.12-.09-.22-.13-.33a16.47,16.47,0,0,0-2.39-4.06c-8.7-10.56-20.26-15.05-31.26-21.8l-13.7,39.1-12.7,36.22L563,500.5l-10.68-40.29c-8.29,1-34.4,16.36-37.65,26.09-1.7,5.11-5,13.36-8.48,23.4l0,.08c-7.92,21.38-17.58,49.61-18.38,68.08-.5,11.42,3.86,33.53,8.42,48.77a77.25,77.25,0,0,0,5.13,13.59,96.4,96.4,0,0,0,10.35,15.14l-3.36,80.71H629.15l-3.85-165c1.83,6.14,3.93,11.71,7.09,16.32,13.46,19.58,88.89,21,88.89,21V588.22S656.65,566,651.15,550.7Zm-122.39,61a89.52,89.52,0,0,1-6.9-25.26q.58-2.44,1.39-4.83c.58-1.7,3.21-12.77,5.85-23.42Z"/><rect class="cls-32" x="528.91" y="513.98" width="28.01" height="4.67"/></g><g id="TABLET"><path class="cls-39" d="M553.31,588l-11.74,66.62a8,8,0,0,1-4.27,5.59l-.29.14a7.65,7.65,0,0,1-1.44.49,29.85,29.85,0,0,0-2.26-8.8l-.33-.75-4.16-9.45-.2.24h0c-1.09-2.56-14.31-34.19-5.36-60.48h24.81A5.21,5.21,0,0,1,553.31,588Z"/><path class="cls-39" d="M516.4,661H496.54a5.21,5.21,0,0,1-5.26-6.39l4.93-28a77.25,77.25,0,0,0,5.13,13.59,91.22,91.22,0,0,0,13.22,18.36h0A26.48,26.48,0,0,0,516.4,661Z"/><path class="cls-60" d="M528.62,642.1l.2-.24,4.16,9.45,0-.07-.07-.16c-1.22-2.83-17.57-42-1.23-69.45h-8.47C514.31,607.91,527.51,639.54,528.62,642.1Z"/></g><g id="HANDS-2" data-name="HANDS"><path class="cls-45" d="M721.28,588.22v20.2s26.92-3.88,28.55-7.14,5.71-7.35-4.9-4.9c-5.77,1.34-12.27-1.21-17-3.79,2.44-2.18,12.23-5.41,10.47-6.81C736.37,584.15,721.28,588.22,721.28,588.22Z"/><path class="cls-45" d="M530.86,668.38c-3.54.64-6.82-.75-9.5-2.66a28,28,0,0,1-5-4.69,26.48,26.48,0,0,1-1.85-2.44h0l14.05-16.47h0l.2-.24,4.16,9.45.33.75a29.85,29.85,0,0,1,2.26,8.8C535.78,664.32,534.86,667.65,530.86,668.38Z"/></g><g id="HEAD-3" data-name="HEAD"><path class="cls-45" d="M595.71,439a9.22,9.22,0,0,1-7.45,7.46,11.65,11.65,0,0,1-2.51.28.28.28,0,0,0,0,.05.51.51,0,0,0,0,.09c0,.31.16,1.06.36,2.11a2.56,2.56,0,0,0,.05.27c.09.46.18.94.29,1.47l.09.48c.14.68.29,1.39.46,2.14,0,.16.07.33.12.5.08.37.17.75.26,1.12,0,.13.07.26.1.4l0,.11h0l-.29-.12h-.46l-1.17.95c-.76.61-1.62,1.3-2.5,2-3,2.33-6.17,4.7-6.91,4.7-.94,0-6.67-3.91-10.62-6.69-.27-.2-1.26-1-1.51-1.19-.46-3.82-.3-6.95-1-9.6l.33.57c-.15-.54-4.81-18.07-2.22-20s9.94,8.74,9.65.58,1.36-16.2,6.45-13.76c3,1.43,9.65.33,15-1.54C597.55,419.8,596.77,433.79,595.71,439Z"/><path class="cls-46" d="M599.71,406.82c-.65,1.48-3.7,3.18-7.43,4.5-5.31,1.87-12,3-15,1.54-5.09-2.44-6.73,5.6-6.45,13.76s-7-2.55-9.65-.58,2.07,19.48,2.22,20l-.33-.57h0c-2.49-4.39-17.58-32.22-8.16-43.63s21.6-8.42,34.4-5.52C598,398.3,601.28,403.23,599.71,406.82Z"/><path class="cls-56" d="M587.51,455.34l0,.11-.29-.12h-.46l-1.17.95c-.76.61-1.62,1.3-2.5,2-7.82-8.42-11.54-23.55-7.63-18.57s9.52,6.34,12.77,6.73a11.7,11.7,0,0,1-2.51.28v.05s0,.05,0,.09c.05.31.18,1.06.37,2.1a1.67,1.67,0,0,0,.06.29c.08.44.17.93.28,1.46l.09.49c.14.67.29,1.38.46,2.13,0,.16.07.33.12.51.08.36.17.73.26,1.1C587.44,455.07,587.48,455.2,587.51,455.34Z"/></g></g><g id="LAMP"><polygon class="cls-61" points="442.3 654.06 1.32 654.06 1.32 572.05 140.36 283.87 263.69 283.87 442.3 654.06"/><path class="cls-2" d="M217.78,228.27a20.58,20.58,0,0,0,1.1-6.66c0-9.26-6.09-17-14.09-18.52V0h-5.87V203.09c-8,1.54-14.09,9.26-14.09,18.52a20.58,20.58,0,0,0,1.1,6.66c-26,6.6-45.14,29-45.14,55.6H262.92C262.92,257.26,243.78,234.87,217.78,228.27Zm-18.86-1.91a65.13,65.13,0,0,0-7.18.71,14.58,14.58,0,0,1-1-5.46c0-6,3.48-11,8.22-12.47Zm5.87,0V209.14c4.73,1.49,8.22,6.52,8.22,12.47a14.64,14.64,0,0,1-1,5.47A62.62,62.62,0,0,0,204.79,226.36Z"/></g><g id="WOMAN"><path id="CHAIR-3" data-name="CHAIR" class="cls-42" d="M429.48,587.87c0-.12,0-.23,0-.34a.28.28,0,0,0,0-.09,1,1,0,0,0,0-.17,1.94,1.94,0,0,0,0-.24,3.55,3.55,0,0,0-.06-.47l0-.25s0-.06,0-.09,0-.16,0-.24a10,10,0,0,0-.27-1.11c0-.09-.06-.19-.08-.28s-.11-.33-.18-.49-.22-.56-.35-.84c0-.07-.07-.14-.1-.22a10.7,10.7,0,0,0-1.88-2.68l-.26-.27-.3-.28,0,0-.3-.26c-.11-.1-.22-.18-.33-.27l-.34-.25-.33-.23,0,0-.33-.2-.38-.22c-.26-.14-.54-.28-.81-.4l0,0c-.22-.09-.44-.19-.67-.27l-.06,0a11.41,11.41,0,0,1-.06,1.16,11.41,11.41,0,0,0,.06-1.16h0a12.45,12.45,0,0,0-4.35-.75H377.3c-.51,4.15-1.12,8.9-1.77,13.86-2,15.27-4.27,32.6-5,41.07-.13,1.63-.2,2.93-.2,3.82,0,9.3,9.3,35.24,9.3,35.24s6.85,46-18.6,48.46c-1,.1-2.1.18-3.26.26h-64v0H274.28c-2.3,0-4.16,2.41-4.16,5.39s1.86,5.38,4.16,5.38h42.49L279.3,883.91h7.44l34-139.23,15.86,65-18.13,74.27h7.44l14.41-59,14.4,59h7.44L344,809.64l15.86-65,34,139.23h7.44L363.8,730.37h13.08c15.34,0,30-12.45,32.69-27.8l19.7-111.79c.09-.52.15-1,.19-1.54,0-.31,0-.61,0-.91S429.48,588,429.48,587.87ZM340.29,794.42l-15.64-64h31.27Z"/><g id="WOMAN-2" data-name="WOMAN"><path class="cls-45" d="M261.75,789.8c-3.71,16.49-7.94,33.14-11.59,46.91-4.3,16.2-8.13,34.85-9.14,39.88h-7.27a1.86,1.86,0,0,1-.33.9c0-6.14-.58-81.51-1.52-97.48-.23-3.86-1-10.32-1.83-18-1.83-16.33-4.33-38.3-4.15-53.36,0-.26,0-.52,0-.78,0-1.18.06-2.32.11-3.41,0-.13,0-.26,0-.38.12-1.85.28-3.54.51-5l.06-.37a1.85,1.85,0,0,0,0-.23c0-.15,0-.29.08-.43s0-.2.05-.29.05-.19.07-.29.07-.34.11-.51,0-.2.07-.3c.06-.27.14-.53.21-.78l.09-.32c.06-.2.13-.4.2-.59a2.09,2.09,0,0,0,.08-.23c.05-.13.1-.26.16-.38a3,3,0,0,1,.16-.36,6.2,6.2,0,0,1,.92-1.46c9.87,1.2,23.39,6.44,32.38,24.43.31.63.62,1.23.91,1.83h0A173.07,173.07,0,0,1,261.75,789.8Z"/><path class="cls-56" d="M230.07,762c-2.8-24.84-7.11-62.79-1.2-69.51a40.39,40.39,0,0,0-11.52.23C217.5,706.55,223.1,733.56,230.07,762Z"/><path class="cls-56" d="M250.16,836.71c4.26,14.86,6.75,33.35,6.75,33.35l7.34.49s12.94-97.82,6.8-126.27c-2.65-12.23-5.79-21-8.8-27.37l-.5,0s8.81,33.77,0,72.93C258,806.29,253.81,822.94,250.16,836.71Z"/><path class="cls-34" d="M217.35,692.67a40.39,40.39,0,0,1,11.52-.23,4.72,4.72,0,0,1,.58-.53c8.37-6,42.36-17.84,81-20.67l.12-.06c-42.17,1.86-85.29,6.52-93.08,17.67A37.43,37.43,0,0,0,217.35,692.67Z"/><path class="cls-62" d="M361.07,719.32l-.48,0-2.35.18-.43,0-1.46.09-.58,0-.69,0-1,0-2,.08-2.08,0c-.35,0-.71,0-1.07,0-5.44.11-11.63.1-18.14,0l-2.75-.06-2.09,0-2.11-.05-.64,0-1.41,0h-.37l-2.49-.07-1.92-.06-1.87-.06-2.56-.09-.58,0c-2.62-.09-5.23-.19-7.79-.3l-1.83-.07-7.05-.31-1.37-.07-3.83-.18-.71,0-.69,0-1,0-1-.05-1.4-.08-1-.05h-.23l-.65,0-.79,0-1.12-.06-2.44-.13-.88,0-1.44-.08-.56,0-3.1-.18-.52,0h-.07l-.78,0-1.16-.06-.85,0-.93-.06-.73,0-1.49-.09-.68,0-.79,0-.42,0L263.2,717l-.26,0-.69,0-.5,0s.16.63.42,1.83c-.29-.6-.6-1.2-.91-1.83-9-18-22.51-23.23-32.38-24.43l.13-.14.07-.07a3.52,3.52,0,0,1,.37-.32,26.65,26.65,0,0,1,3-1.84l.3-.16c1.17-.62,2.51-1.27,4-1.93l1.07-.48.19-.08.71-.29c4.15-1.74,9.32-3.6,15.28-5.42l.95-.29c1.43-.42,2.9-.85,4.42-1.28l1.14-.31.8-.21,1.38-.37c4.08-1.08,8.42-2.11,13-3.06l1.44-.3,1.6-.33,2.89-.55c1.44-.27,2.89-.53,4.37-.78l1.78-.3,3.15-.49.13,0,3.06-.44c1.6-.22,3.22-.43,4.85-.63l3.28-.37,2-.21,1.44-.14,1.12-.1,1.54-.13,2.07-.16.12-.06,2.09-.1h.06l5.56-.22c14.62-.53,28.86-.74,41.17-.8h.06c13.27.19,20.17.8,20.17.8S386.52,716.87,361.07,719.32Z"/><path class="cls-50" d="M209.39,645.3v7.8H249v-7.8a3.55,3.55,0,0,0-3.43-3.65H212.82A3.55,3.55,0,0,0,209.39,645.3Z"/><path class="cls-45" d="M349.82,540.16H323.13l-.23-1-2.71-12.66s-.51.08-1.33.13c-2.49.18-7.79.13-9.76-3.07a122.35,122.35,0,0,1-7.54-18.28h0l-.11-.24h0c-.61-1.94-1.14-3.86-1.53-5.66a8.08,8.08,0,0,1,1.31-5.73s2.29,1.52,16.31,8c3.15,1.46,5.85,2.55,8.1,3.35h0c1.77.88,6.57,4,10.59,12.87a49.69,49.69,0,0,1,2,5.24v0c.25.73.48,1.49.7,2.28h0C340.67,530.45,344.15,538.43,349.82,540.16Z"/><path class="cls-46" d="M420,609.34c-1,26.1-43.38,22.84-49.26,22.84a.45.45,0,0,1-.18,0c.69-8.47,3-25.81,5-41.07,1.59-12.22,3-23.11,3.16-27.06,0-.87.07-1.76.08-2.65.18-9.64-1.55-20.28-13.9-20.83h-.21c-2.37-.09-7.71-.11-13.66-.11a7.73,7.73,0,0,1-1.18-.25c-5.67-1.73-9.15-9.71-10.82-14.74h0c-.22-.79-.45-1.55-.7-2.28v0a49.69,49.69,0,0,0-2-5.24c-4-8.91-8.82-12-10.59-12.87h0c-2.25-.8-4.95-1.89-8.1-3.35-14-6.53-16.31-8-16.31-8a8.08,8.08,0,0,0-1.31,5.73,19.19,19.19,0,0,0,1.53,5.66h0l.11.24h0a7.76,7.76,0,0,1-5.51-7.17c-.49-8.89,7.72-13.38,10.66-15.34s29.47-10.77,30.45,9.14c1.3,26.42,13.37,36.22,30,40.79s27.07,20.23,30.66,42.1S421,583.23,420,609.34Z"/><path class="cls-56" d="M320.19,526.45l2.71,12.66c4.71-1.46,11.11-7.48,4.8-25.06C327.7,514.05,328.35,526.45,320.19,526.45Z"/><g id="GLASSES"><path class="cls-2" d="M296.63,516.34c1.66,2.69,3.44,3.26,4.64,3.26,2,0,6.06-3.29,8.31-5.25,2.4,1.41,8.22,4.65,10.82,4.65a2.47,2.47,0,0,0,.84-.12c4.28-1.35,5.72-6.94,5.23-11.89-.14-1.4-.8-6-3.52-6.31-.31,0-.73-.05-1.28-.05-3.08,0-9.56.49-15.08,1.15-11.43,1.36-12,2.47-12.36,3.2C293.25,507,294.5,512.9,296.63,516.34Zm-.1-10c2.37-1.31,18.84-3.06,25.14-3.06.5,0,.78,0,.94,0,.55.36,1.63,3.16,1.27,7-.15,1.56-.77,5.27-3.42,6.11h-.06c-1.66,0-7-2.78-10.3-4.76a1.26,1.26,0,0,0-.67-.19,1.28,1.28,0,0,0-.87.33c-3.08,2.75-6.41,5.14-7.29,5.22s-1.7-.94-2.23-1.71C297.12,512.42,296.27,507.58,296.53,506.3Z"/><path class="cls-63" d="M299,515.28c.53.77,1.34,1.7,2.23,1.71s4.21-2.47,7.29-5.22a1.28,1.28,0,0,1,.87-.33,1.26,1.26,0,0,1,.67.19c3.28,2,8.64,4.76,10.3,4.76h.06c2.65-.84,3.27-4.55,3.42-6.11.36-3.85-.72-6.65-1.27-7-.16,0-.44,0-.94,0-6.3,0-22.77,1.75-25.14,3.06C296.27,507.58,297.12,512.42,299,515.28Z"/></g><path class="cls-2" d="M241,876.59l-1.57,7.79h-19a10.15,10.15,0,0,1,7-4.21c3.73-.6,5.16-1.83,5.7-2.68a1.86,1.86,0,0,0,.33-.9Z"/><path class="cls-2" d="M267,874.63s-4.8,6.8-7.35,9.75h-10c.42-1.71,1.43-4.51,3.66-5.18,3.26-1,3.59-9.14,3.59-9.14l7.34.49Z"/><path class="cls-36" d="M311.17,670.86s.42-7.21-.31-23.61c-.05-1.21-.11-2.48-.18-3.8-.1-1.84-.25-3.78-.46-5.79-5.75-3.67-12.18-8.38-18.46-13.25-1.62,1.74-3.27,3.39-4.94,4.93A100.9,100.9,0,0,1,249,651v-5.91a3.43,3.43,0,0,0-3.43-3.43h-4.73c1.75-1.87,18.23-19.34,26.73-28.3,2.18-2.3,3.84-4,4.58-4.81-5.93-5-10.24-8.72-11.41-9.64a10.17,10.17,0,0,0-4.63-1.78l5.71-10.78c4.7,1.36,11.3,3.83,18.5,6.72,8.82-17.94,22.11-45.8,24.45-49.14,3.39-4.84,19.66-3.78,20.06-3.75h0c.63,0,1.26,0,2,0l15.29-.08c8.93,0,19-.05,22.54.08,12.55.45,14.29,11.14,14.12,20.84h0c0,.89,0,1.78-.09,2.64-.11,2.34-.65,7.14-1.39,13.2-.51,4.15-1.12,8.9-1.77,13.86-2,15.27-4.27,32.6-5,41.07-.13,1.63-.2,2.93-.2,3.82,0,9.3,9.3,35.24,9.3,35.24Z"/><path class="cls-44" d="M378.78,561c0,.89,0,1.78-.09,2.64-.11,2.34-.65,7.14-1.39,13.2-.51,4.15-1.12,8.9-1.77,13.86-10.55,23.52-36,64.18-46.26,65-3.72.29-10.53-3.23-18.41-8.44-.05-1.21-.11-2.48-.18-3.8-.1-1.84-.25-3.78-.46-5.79,7.12,4.55,13.18,7.53,16.61,7.26,12.72-1,49.1-63.73,50.88-78.31a44.09,44.09,0,0,0,.29-7.46,16.29,16.29,0,0,1,.77,1.87Z"/><path class="cls-44" d="M267.6,613.36c4.38,3.72,11.39,9.69,19.22,16,1.67-1.54,3.32-3.19,4.94-4.93-7.12-5.51-14.05-11.23-19.57-15.86C271.44,609.31,269.79,611.05,267.6,613.36Z"/><path class="cls-44" d="M303.4,600.84,280.51,593c12,5.11,45.36,19.34,46.31,19.15,1.41-.28,8.32-21.44,13.93-39.37.21-1.3.32-2,.32-2s-9.6,30.25-17.4,32.42S303.4,600.84,303.4,600.84Z"/><g id="SYRINGE"><path class="cls-36" d="M266.32,569.78a12.29,12.29,0,0,0-3.1-2c-1.93-.9-4.56-1.62-5.65-.7a1.24,1.24,0,0,0-.34.42c-.53,1.14.86,2.57,2.67,3.67l-1.58,3.39.15.05-.15-.05h0l-.63-.2-.24-.06-.21-.06-.31-.07c-.21,0-.41-.08-.61-.1l-.17,0a4.1,4.1,0,0,0-1.17,0l-.25,0-.16.06a1.56,1.56,0,0,0-.34.18.39.39,0,0,0-.1.08l-.1.09-.12.15a.72.72,0,0,0-.11.19l-10.13,21.73v0h0l-7.47,16c-.23.5-.22,1.32,1,2.44l-.5,1.08c-.44.94.68,2,2,2.69h0l-8,17.24,1.18.55,8-17.24c1.15.45,2.43.66,3.06.13a.94.94,0,0,0,.27-.35l.5-1.07c1.33.17,2.21-.12,2.52-.8l7.46-16h0s0,0,0,0l10.12-21.7,0,0s0-.09.05-.13a1.34,1.34,0,0,0,.06-.4v-.12s0-.09,0-.13,0,0,0-.07l-.05-.17a4.46,4.46,0,0,0-1.49-1.81l-.12-.1-.56-.41-.18-.12-.18-.11-.16-.1,1.57-3.4c1.63.56,3.36.82,4.19.12a1.18,1.18,0,0,0,.34-.43C267.48,571.71,267.5,570.91,266.32,569.78ZM262,580.41l-8.84,19-.63,1.37-.67,1.42L245,616.78c-.08.07-.49.2-1.42,0l-.19,0a11.25,11.25,0,0,1-2.64-.89,13.22,13.22,0,0,1-1.3-.69,2.9,2.9,0,0,1-.29-.19,7.1,7.1,0,0,1-.8-.57l-.11-.1-.11-.09h0c-.67-.6-.8-1-.8-1l2.47-5.31.55-1.18.74-1.58.55-1.19.91-2,.55-1.18,1.05-2.26h0l.64-1.37.66-1.42,1-2.25.56-1.18.75-1.59.54-1.18.91-2,.55-1.18,4.49-9.63a10.88,10.88,0,0,0,3.52,2.46A11.13,11.13,0,0,0,262,580.41Z"/><path class="cls-39" d="M253.15,599.37l-.63,1.37-.67,1.42L245,616.78c-.08.07-.49.2-1.42,0l-.19,0a11.25,11.25,0,0,1-2.64-.89,13.22,13.22,0,0,1-1.3-.69,2.9,2.9,0,0,1-.29-.19,8.47,8.47,0,0,1-.79-.57l-.12-.1-.11-.09h0c-.67-.6-.8-1-.8-1l2.47-5.31.55-1.18.74-1.58.55-1.19.91-2,.55-1.18,1.05-2.26h0l.64-1.37.66-1.42a10.92,10.92,0,0,1,4.15,1.12A10.59,10.59,0,0,1,253.15,599.37Z"/></g><path class="cls-45" d="M211.24,642.31a18.27,18.27,0,0,0-7.83.32c-3.75,1.14-2.28,10.45-1,10.45s8.65.48,9.95-.33S217.27,644.26,211.24,642.31Z"/><path class="cls-45" d="M261.85,586.35l-5.71,10.78c-.5-.08-1-.14-1.51-.18a30,30,0,0,0-5.85.22h0l-1.71-.09a13.52,13.52,0,0,1-3.42-.44c-.9-.59.85-12.77,9.54-11.68.81.1,1.55.19,2.22.29,2.73.36,4.42.63,5.38.8Z"/></g><g id="FLASKS"><path class="cls-36" d="M111.28,579.71H99a.81.81,0,0,0,0,1.62H100v42.91c0,2.26,2.29,4.1,5.1,4.1s5.09-1.84,5.09-4.1V581.33h1.07a.81.81,0,0,0,0-1.62Zm-2.56,44.53c0,1.44-1.62,2.61-3.6,2.61s-3.61-1.17-3.61-2.61v-43h7.21Z"/><path class="cls-50" d="M108.72,603.68v20.56c0,1.44-1.62,2.61-3.6,2.61s-3.61-1.17-3.61-2.61V603.68Z"/><path class="cls-36" d="M129.34,579.71H117a.81.81,0,0,0,0,1.62h1.07v42.91c0,2.26,2.29,4.1,5.1,4.1s5.1-1.84,5.1-4.1V581.33h1.07a.81.81,0,0,0,0-1.62Zm-2.57,44.53c0,1.44-1.61,2.61-3.6,2.61s-3.61-1.17-3.61-2.61v-43h7.21Z"/><path class="cls-39" d="M126.77,607v17.63c0,1.23-1.61,2.24-3.6,2.24s-3.61-1-3.61-2.24V607Z"/><path class="cls-36" d="M172.46,607.47a13,13,0,0,0-6.17-4.45V587.81h1.27a.8.8,0,0,0,.79-.8.79.79,0,0,0-.79-.79H156.67a.79.79,0,0,0-.8.79.8.8,0,0,0,.8.8h1.26V603a13.09,13.09,0,0,0-6.17,4.45,13,13,0,1,0,20.7,0ZM151.08,612a11.59,11.59,0,0,1,7.79-7.73.74.74,0,0,0,.53-.71V587.75h5.42v15.81a.74.74,0,0,0,.53.71,11.59,11.59,0,0,1,7.79,7.73Z"/><rect class="cls-42" x="132.05" y="540.76" width="4.52" height="112.17" rx="0.32"/><path class="cls-36" d="M148.77,555.39a.31.31,0,0,1-.32.3H120.16a.31.31,0,0,1-.32-.3V550.9a.31.31,0,0,1,.32-.3h28.29a.31.31,0,0,1,.32.3Z"/><path class="cls-36" d="M163.31,648.67v4.26a.3.3,0,0,1-.28.3h-3.59a.31.31,0,0,1-.32-.3v-.79L134,645.08l-25.14,7.06v.79a.31.31,0,0,1-.32.3h-3.59a.3.3,0,0,1-.28-.3v-4.26a.47.47,0,0,1,.32-.42l28.5-8,.51-.14.51.14,28.5,8A.47.47,0,0,1,163.31,648.67Z"/><path class="cls-39" d="M136.24,638.27l-.72.73a2.29,2.29,0,0,1-3.22,0l-.72-.73a1.53,1.53,0,0,0-2.07,2.08l.72.72a2.28,2.28,0,0,1,0,3.22l-.72.72a1.53,1.53,0,0,0,2.07,2.07l.72-.72a2.28,2.28,0,0,1,3.22,0l.72.72a1.53,1.53,0,0,0,2.07-2.07l-.72-.72a2.29,2.29,0,0,1,0-3.22l.72-.72a1.53,1.53,0,0,0-2.07-2.08Zm-1.32,5.42a1.43,1.43,0,1,1,0-2A1.44,1.44,0,0,1,134.92,643.69Z"/><path class="cls-36" d="M175.11,594.31v4.51a.3.3,0,0,1-.32.29h-81a.31.31,0,0,1-.32-.29v-4.51a.31.31,0,0,1,.32-.29h81A.3.3,0,0,1,175.11,594.31Z"/></g><g id="TABLE-3" data-name="TABLE"><rect class="cls-37" x="102.47" y="669.71" width="16.15" height="214.21"/><rect class="cls-36" x="160.6" y="669.75" width="16.15" height="214.83"/><rect class="cls-36" y="653.45" width="299.11" height="16.31"/></g></g></g></g></g></svg>