<svg xmlns="http://www.w3.org/2000/svg" width="67" height="67" viewBox="0 0 67 67">
  <g id="Group_8686" data-name="Group 8686" transform="translate(-280 -1050)">
    <circle id="icon_bg" cx="33.5" cy="33.5" r="33.5" transform="translate(280 1050)" fill="#f3f6ff"/>
    <g id="Group_7998" data-name="Group 7998" transform="translate(289 1068)">
      <g id="admin">
        <path id="Path_8427" data-name="Path 8427" d="M35.344,28.762a2.071,2.071,0,1,0,2.071,2.071A2.074,2.074,0,0,0,35.344,28.762Zm0,2.731a.66.66,0,1,1,.66-.66A.661.661,0,0,1,35.344,31.493Zm0,0" transform="translate(-30.14 -26.053)" fill="#404cdc" stroke="#404cdc" stroke-width="0.3"/>
        <path id="Path_8428" data-name="Path 8428" d="M91.329,28.762A2.071,2.071,0,1,0,93.4,30.833,2.074,2.074,0,0,0,91.329,28.762Zm0,2.731a.66.66,0,1,1,.66-.66A.66.66,0,0,1,91.329,31.493Zm0,0" transform="translate(-80.851 -26.053)" fill="#404cdc" stroke="#404cdc" stroke-width="0.3"/>
        <path id="Path_8429" data-name="Path 8429" d="M147.317,28.762a2.071,2.071,0,1,0,2.071,2.071A2.074,2.074,0,0,0,147.317,28.762Zm0,2.731a.66.66,0,1,1,.66-.66A.661.661,0,0,1,147.317,31.493Zm0,0" transform="translate(-131.566 -26.053)" fill="#404cdc" stroke="#404cdc" stroke-width="0.3"/>
        <path id="Path_8430" data-name="Path 8430" d="M45.116,0H3.106A3.11,3.11,0,0,0,0,3.106V37.254A3.1,3.1,0,0,0,3.106,40.36H16.838v2.531H14.707a2.581,2.581,0,0,0-2.578,2.578v1.525a1.177,1.177,0,0,0,1.176,1.176H25.193a.706.706,0,0,0,0-1.412H13.541V45.469A1.168,1.168,0,0,1,14.707,44.3H33.46a1.168,1.168,0,0,1,1.166,1.167v1.289H29.568a.706.706,0,0,0,0,1.412h5.293a1.178,1.178,0,0,0,1.177-1.176V45.469a2.581,2.581,0,0,0-2.578-2.578H31.33V40.36H45.062a3.1,3.1,0,0,0,3.106-3.106V33.871l.053-30.765A3.109,3.109,0,0,0,45.116,0Zm-15.2,42.891H18.249V40.36H29.918Zm16.839-5.637a1.7,1.7,0,0,1-1.522,1.686c-.057.006-.114.008-.173.008H3.106c-.058,0-.116,0-.173-.008a1.7,1.7,0,0,1-1.522-1.686V34.577H46.757Zm0-4.089H1.411V9.6H46.757Zm0-24.977H1.463V3.106A1.7,1.7,0,0,1,3.158,1.412h41.9a1.7,1.7,0,0,1,1.695,1.695Zm0,0" transform="translate(0 0)" fill="#404cdc" stroke="#404cdc" stroke-width="0.3"/>
      </g>
      <g id="pulse" transform="translate(11.837 10.106)">
        <g id="Group_7997" data-name="Group 7997" transform="translate(0 6.086)">
          <path id="Path_8431" data-name="Path 8431" d="M10.679,170.714a.734.734,0,0,1-.657-.406l-1.993-3.983-1.11,1.708a.735.735,0,0,1-.616.334H.734a.735.735,0,0,1,0-1.469H5.9L7.5,164.45a.734.734,0,0,1,1.273.071l1.7,3.39,1.723-6.533a.734.734,0,0,1,1.382-.11l1.258,2.839,1.059-1.641a.734.734,0,0,1,1.229-.008l1.1,1.658h5.6a.734.734,0,0,1,0,1.469H17.822a.735.735,0,0,1-.612-.328l-.7-1.051-1.188,1.842a.734.734,0,0,1-1.289-.1l-.961-2.169-1.685,6.39a.736.736,0,0,1-.71.547Z" transform="translate(0 -160.831)" fill="#404cdc"/>
          <path id="Path_8432" data-name="Path 8432" d="M56.992,176.044a.734.734,0,0,1-.312-.07,23.858,23.858,0,0,1-9.178-7.935.734.734,0,0,1,.612-1.141h2.9L52.6,164.45a.734.734,0,0,1,1.273.071l1.7,3.39,1.723-6.533a.734.734,0,0,1,1.382-.11l1.258,2.839,1.059-1.641a.735.735,0,0,1,.612-.336h0a.735.735,0,0,1,.612.328l1.319,1.986a.734.734,0,0,1-1.224.813l-.7-1.051-1.188,1.842a.734.734,0,0,1-1.289-.1l-.961-2.169-1.685,6.39a.734.734,0,0,1-1.367.141l-1.993-3.983-1.11,1.708a.735.735,0,0,1-.616.334H49.552a23,23,0,0,0,7.44,6.127,22.975,22.975,0,0,0,7.08-5.678.734.734,0,1,1,1.13.939,24.324,24.324,0,0,1-7.9,6.22A.734.734,0,0,1,56.992,176.044Z" transform="translate(-45.107 -160.831)" fill="#404cdc"/>
        </g>
        <path id="Path_8433" data-name="Path 8433" d="M27.534,58.583l2.567,5.13L32.32,55.3l1.809,4.083,1.8-2.784,1.319,1.986h4.4a9.514,9.514,0,0,0,.419-1.434c.1-.49-.419-.075-.419-.552-1.924-3.606-2.184-3.606-5.716-3.606A7.1,7.1,0,0,0,31.266,55.3c-1.158-1.168-1.311-2.308-3.072-2.308-3.531,0-6.762.027-6.762,3.606,0,.477-.978.062-.878.552a12.235,12.235,0,0,0,1.874,4.217h3.3Z" transform="translate(-19.422 -52.478)" fill="#8ddfe7"/>
        <path id="Path_8434" data-name="Path 8434" d="M15.52,49.865a.735.735,0,0,1-.657-.406L12.87,45.476l-1.11,1.708a.735.735,0,0,1-.616.334h-3.3a.734.734,0,0,1-.612-.328,12.877,12.877,0,0,1-1.982-4.476,8.049,8.049,0,0,1-.169-1.6A7.181,7.181,0,0,1,12.213,33.9a7.026,7.026,0,0,1,4.514,1.631A7.026,7.026,0,0,1,21.24,33.9a7.181,7.181,0,0,1,7.128,7.218,8.046,8.046,0,0,1-.169,1.6,10.285,10.285,0,0,1-.451,1.545.734.734,0,0,1-.688.476h-4.4a.735.735,0,0,1-.612-.328l-.7-1.051L20.166,45.2a.734.734,0,0,1-1.289-.1l-.961-2.169-1.685,6.39a.734.734,0,0,1-.635.543C15.571,49.863,15.545,49.865,15.52,49.865Zm-2.567-6.6h.041a.735.735,0,0,1,.616.4l1.7,3.39,1.723-6.533a.734.734,0,0,1,1.382-.11l1.258,2.839,1.059-1.641a.734.734,0,0,1,1.229-.008l1.1,1.658h3.48a8.31,8.31,0,0,0,.222-.847,6.57,6.57,0,0,0,.139-1.307,5.711,5.711,0,0,0-5.659-5.749,5.586,5.586,0,0,0-3.992,1.674.734.734,0,0,1-1.043,0,5.586,5.586,0,0,0-3.992-1.674,5.711,5.711,0,0,0-5.659,5.749,6.573,6.573,0,0,0,.139,1.307,11.072,11.072,0,0,0,1.553,3.629h2.5L12.337,43.6A.734.734,0,0,1,12.953,43.266Z" transform="translate(-4.841 -33.895)" fill="#404cdc"/>
      </g>
    </g>
  </g>
</svg>
