<svg xmlns="http://www.w3.org/2000/svg" width="67" height="66" viewBox="0 0 67 66">
  <g id="Group_8689" data-name="Group 8689" transform="translate(-280 -1340)">
    <ellipse id="icon_bg" cx="33.5" cy="33" rx="33.5" ry="33" transform="translate(280 1340)" fill="#f3f6ff"/>
    <g id="Group_8483" data-name="Group 8483" transform="translate(-4.069 -18)">
      <g id="heartbeat" transform="translate(305.176 1390.498)">
        <path id="Path_8461" data-name="Path 8461" d="M16.712,29.624a.527.527,0,0,1-.526.526H12.962a.522.522,0,0,1-.519-.454l-.57-4.09L10.723,36.13a.525.525,0,0,1-.481.465l-.043,0a.52.52,0,0,1-.5-.384l-1.715-6.1L6.291,33.323a.517.517,0,0,1-.529.278.528.528,0,0,1-.449-.395L4.491,29.92H.527a.526.526,0,1,1,0-1.053H4.9a.526.526,0,0,1,.511.4L6,31.612l1.661-3.154a.514.514,0,0,1,.519-.28.533.533,0,0,1,.453.38l1.337,4.757,1.319-12.042a.524.524,0,0,1,.515-.467.529.529,0,0,1,.529.456L13.421,29.1h2.765A.527.527,0,0,1,16.712,29.624ZM19.5,29.1H17.832a.526.526,0,1,0,0,1.053H19.5a.526.526,0,1,0,0-1.053Zm3.585,0H21.31a.526.526,0,0,0,0,1.053h1.772a.526.526,0,1,0,0-1.053Z" transform="translate(0 -20.807)" fill="#7fe3e9" stroke="#7fe3e9" stroke-width="1"/>
      </g>
      <g id="heartbeat-2" data-name="heartbeat" transform="translate(305.176 1390.498)">
        <path id="Path_8461-2" data-name="Path 8461" d="M16.712,29.624a.527.527,0,0,1-.526.526H12.962a.522.522,0,0,1-.519-.454l-.57-4.09L10.723,36.13a.525.525,0,0,1-.481.465l-.043,0a.52.52,0,0,1-.5-.384l-1.715-6.1L6.291,33.323a.517.517,0,0,1-.529.278.528.528,0,0,1-.449-.395L4.491,29.92H.527a.526.526,0,1,1,0-1.053H4.9a.526.526,0,0,1,.511.4L6,31.612l1.661-3.154a.514.514,0,0,1,.519-.28.533.533,0,0,1,.453.38l1.337,4.757,1.319-12.042a.524.524,0,0,1,.515-.467.529.529,0,0,1,.529.456L13.421,29.1h2.765A.527.527,0,0,1,16.712,29.624ZM19.5,29.1H17.832a.526.526,0,1,0,0,1.053H19.5a.526.526,0,1,0,0-1.053Zm3.585,0H21.31a.526.526,0,0,0,0,1.053h1.772a.526.526,0,1,0,0-1.053Z" transform="translate(0 -20.807)" fill="#404cdc"/>
      </g>
      <rect id="Rectangle_2631" data-name="Rectangle 2631" width="11" height="2" rx="1" transform="translate(313.069 1412.568)" fill="#79e4ea"/>
      <path id="Path_8667" data-name="Path 8667" d="M.494,4,18,0V4H.494Z" transform="translate(309.069 1373.568)" fill="#79e4ea"/>
      <g id="checklist_1_" data-name="checklist (1)" transform="translate(300 1370)">
        <g id="Group_8004" data-name="Group 8004" transform="translate(0)">
          <g id="Group_8003" data-name="Group 8003" transform="translate(0)">
            <path id="Path_8450" data-name="Path 8450" d="M388.548,3.769h-6.6V2.827a.942.942,0,0,0-.942-.942h-5.655a4.709,4.709,0,0,0-7.536,0h-5.655a.942.942,0,0,0-.942.942v.942h-6.6a.942.942,0,0,0-.942.942V48.057a.942.942,0,0,0,.942.942h33.922a.942.942,0,0,0,.942-.942V4.711A.942.942,0,0,0,388.548,3.769Zm-25.442,0h5.217a.942.942,0,0,0,.816-.47,2.826,2.826,0,0,1,4.9,0,.942.942,0,0,0,.816.47h5.217V7.538H363.107Zm24.5,39.576h-4.711a.942.942,0,1,0,0,1.885h4.711v1.885H355.568V5.654h5.654V8.481a.942.942,0,0,0,.942.942H381.01a.942.942,0,0,0,.942-.942V5.654h5.654V43.345Z" transform="translate(-353.684 0)" fill="#404cdc" stroke="#f3f6ff" stroke-width="0.2"/>
          </g>
        </g>
        <g id="Group_8024" data-name="Group 8024" transform="translate(25.442 43.345)">
          <g id="Group_8023" data-name="Group 8023" transform="translate(0)">
            <path id="Path_8460" data-name="Path 8460" d="M1719.506,2324.485a.942.942,0,1,0,.276.666A.949.949,0,0,0,1719.506,2324.485Z" transform="translate(-1717.898 -2324.209)" fill="#404cdc"/>
          </g>
        </g>
      </g>
      <path id="Path_8462" data-name="Path 8462" d="M247.742,433.548h2.547V435h-2.547Zm0,0" transform="translate(69.081 950.469)" fill="#3a5ee0"/>
      <path id="Path_8463" data-name="Path 8463" d="M371.613,433.548h2.547V435h-2.547Zm0,0" transform="translate(-54.789 950.469)" fill="#3a5ee0"/>
      <path id="Path_8464" data-name="Path 8464" d="M495.484,433.548h2.547V435h-2.547Zm0,0" transform="translate(-178.661 950.469)" fill="#3a5ee0"/>
      <path id="Path_8465" data-name="Path 8465" d="M619.355,433.548H621.9V435h-2.547Zm0,0" transform="translate(-302.532 950.469)" fill="#3a5ee0"/>
      <path id="Path_8466" data-name="Path 8466" d="M743.226,433.548h2.547V435h-2.547Zm0,0" transform="translate(-426.403 950.469)" fill="#3a5ee0"/>
    </g>
  </g>
</svg>
